<svg xmlns="http://www.w3.org/2000/svg" width="128" height="128" viewBox="0 0 128 128">
  <title>ALOCASIA</title>
  <path d="M95.383,43.223c-1.694-1.52-4.965-3.931-7.852-3.033a4.555,4.555,0,0,0-2.784,2.283A12.85,12.85,0,0,0,77.805,40a8.379,8.379,0,0,0-2.64.245,18.256,18.256,0,0,0-1.654-5.256c-1.826-3.577-4.837-5.586-8.478-5.655a17.076,17.076,0,0,0-9.7,2.8A8.393,8.393,0,0,0,54.6,28.6a6.674,6.674,0,0,0-4.215-3.536c-3.236-1.011-7.774.821-12.457,5.024-8.066,7.24-15.1,20.121-12.645,32.576a1.748,1.748,0,0,0,1.378,1.378,26.633,26.633,0,0,0,5.163.5c10.739,0,21.173-6.19,27.413-13.143,4.2-4.684,6.034-9.224,5.024-12.457a6.679,6.679,0,0,0-3.536-4.215,7.486,7.486,0,0,0-1.814-.566,13.555,13.555,0,0,1,6.056-1.32c2.354.045,4.18,1.306,5.426,3.747a15.733,15.733,0,0,1,1.5,5.107A14.8,14.8,0,0,0,69.4,43.7c-4.087,4.1-8.091,12.586-7.574,24.38H44.871a1.751,1.751,0,0,0-1.75,1.75V79.3a1.751,1.751,0,0,0,1.75,1.75h.821V95.281a7.94,7.94,0,0,0,7.932,7.931H74.376a7.94,7.94,0,0,0,7.932-7.931V81.045h.821a1.751,1.751,0,0,0,1.75-1.75V69.833a1.751,1.751,0,0,0-1.75-1.75H68.705c4.619-7.746,7.061-16.826,6.8-24.309a5.083,5.083,0,0,1,2.026-.28,9.35,9.35,0,0,1,5.261,1.871,5.038,5.038,0,0,0-1.271.391A4.554,4.554,0,0,0,79.1,48.624c-.9,2.887,1.513,6.159,3.034,7.853,3.69,4.112,9.873,7.77,16.256,7.77a15.945,15.945,0,0,0,3.091-.3,1.75,1.75,0,0,0,1.378-1.378C104.321,55.153,100.158,47.508,95.383,43.223ZM60.92,39.982c.46,1.471-.388,4.729-4.288,9.075C50.493,55.9,39.221,62.312,28.517,60.806c-1.511-10.7,4.909-21.975,11.749-28.115,4.346-3.9,7.606-4.749,9.075-4.288a3.194,3.194,0,0,1,2.087,1.674c.9,1.9.048,4.9-.355,5.888a1.751,1.751,0,0,0,2.281,2.286c.993-.4,3.989-1.254,5.892-.356A3.188,3.188,0,0,1,60.92,39.982Zm17.888,55.3a4.436,4.436,0,0,1-4.432,4.431H53.624a4.436,4.436,0,0,1-4.432-4.431V81.045H78.808Zm2.571-17.736H46.621V71.583H81.379ZM65.29,66.97c-.229-10.151,3.139-17.334,6.589-20.8.06-.06.121-.111.181-.169C71.766,52.943,69.012,60.914,65.29,66.97ZM99.6,60.689c-5.691.531-11.588-2.9-14.862-6.55-2.01-2.24-2.475-3.9-2.3-4.472a1.068,1.068,0,0,1,.562-.74,4.349,4.349,0,0,1,2.767.218,1.753,1.753,0,0,0,2.288-2.278,4.349,4.349,0,0,1-.221-2.775,1.07,1.07,0,0,1,.741-.561c.573-.184,2.231.287,4.47,2.3C96.693,49.1,100.128,55.006,99.6,60.689Z"/>
</svg>
