<svg xmlns="http://www.w3.org/2000/svg" width="128" height="128" viewBox="0 0 128 128">
  <title>ALOE VERA</title>
  <path d="M92.389,45.5a1.75,1.75,0,0,0-1.677-1.25A30.6,30.6,0,0,0,75.98,47.7a41.088,41.088,0,0,1,8.068-11.159,1.75,1.75,0,0,0-1.62-2.986,31.323,31.323,0,0,0-11.717,5.7A44.95,44.95,0,0,0,65.88,25.645a1.75,1.75,0,0,0-3.01,0,45.019,45.019,0,0,0-4.929,14.17,31.311,31.311,0,0,0-12.369-6.258,1.749,1.749,0,0,0-1.618,2.987A40.813,40.813,0,0,1,52,47.649a30.858,30.858,0,0,0-14.708-3.4,1.75,1.75,0,0,0-.959,3.214c.128.083,12.192,8.137,13.256,20.619H44.871a1.751,1.751,0,0,0-1.75,1.75V79.3a1.751,1.751,0,0,0,1.75,1.75h.821V95.281a7.94,7.94,0,0,0,7.932,7.931H74.376a7.94,7.94,0,0,0,7.932-7.931V81.045h.821a1.751,1.751,0,0,0,1.75-1.75V69.833a1.751,1.751,0,0,0-1.75-1.75H78.416c1.066-12.445,13.129-20.536,13.255-20.619A1.751,1.751,0,0,0,92.389,45.5ZM70.805,51.321a30.947,30.947,0,0,0-6.775,8.866q-.444-.862-.967-1.751c1.474-6.61,5.119-14.55,13.917-19.1A40.329,40.329,0,0,0,70.805,51.321ZM64.375,30.5A42.9,42.9,0,0,1,67.6,42.11,29.867,29.867,0,0,0,64,46.818a29.67,29.67,0,0,0-2.938-3.962A42.57,42.57,0,0,1,64.375,30.5ZM51.027,39.348A25.529,25.529,0,0,1,62.049,50.479a35.919,35.919,0,0,0-1.6,4.189,28.289,28.289,0,0,0-3.286-3.444A40.346,40.346,0,0,0,51.027,39.348Zm-8.273,8.858c11.762,2.054,17.1,10.592,19.39,16.275a34.978,34.978,0,0,0-1.1,3.6H53.1C52.454,59,46.89,52.12,42.754,48.206ZM78.808,95.281a4.436,4.436,0,0,1-4.432,4.431H53.624a4.436,4.436,0,0,1-4.432-4.431V81.045H78.808Zm2.571-17.736H46.621V71.583H81.379ZM74.9,68.083H64.622c.2-.773.488-1.727.882-2.8a1.779,1.779,0,0,0,.21-.549c2.251-5.806,7.564-14.486,19.542-16.538C81.12,52.109,75.546,58.994,74.9,68.083Z"/>
</svg>
