<svg xmlns="http://www.w3.org/2000/svg" width="128" height="128" viewBox="0 0 128 128">
  <title>ANTHURIUM</title>
  <path d="M83.129,68.083H65.75V62.31a34.68,34.68,0,0,0,8.8-5.8,1.752,1.752,0,0,0,.766-.717c5.022-4.857,8.544-11.4,8.243-18.967C83.334,31.12,80.644,26.75,76.54,25.42a11.634,11.634,0,0,0-9.287.728,4.572,4.572,0,0,0-6.505,0,11.655,11.655,0,0,0-9.288-.726c-4.1,1.33-6.794,5.7-7.022,11.406-.3,7.572,3.221,14.112,8.245,18.969a1.75,1.75,0,0,0,.763.714,34.672,34.672,0,0,0,8.8,5.8v5.773H44.871a1.751,1.751,0,0,0-1.75,1.75V79.3a1.751,1.751,0,0,0,1.75,1.75h.821V95.281a7.94,7.94,0,0,0,7.932,7.931H74.376a7.941,7.941,0,0,0,7.932-7.931V81.045h.821a1.75,1.75,0,0,0,1.75-1.75V69.833A1.75,1.75,0,0,0,83.129,68.083ZM60.21,44.906a4.576,4.576,0,0,0,7.578,0c1.642,1.248,4.009,3.965,4.231,9.24A30.145,30.145,0,0,1,64,59.264a30.145,30.145,0,0,1-8.019-5.116C56.2,48.874,58.563,46.157,60.21,44.906Zm14.939,5.931a13.81,13.81,0,0,0-6.566-9.587V35.272c2.808.543,8.095,2.125,11,6.474A23.009,23.009,0,0,1,75.149,50.837Zm.313-22.087c2.666.864,4.426,4,4.6,8.187a22.822,22.822,0,0,0-11.479-5.231v-2.3A8.2,8.2,0,0,1,75.462,28.75ZM64,28.288a1.084,1.084,0,0,1,1.083,1.083V42.333a1.083,1.083,0,1,1-2.166,0V29.371A1.083,1.083,0,0,1,64,28.288Zm-11.462.462a8.2,8.2,0,0,1,6.879.665v2.291a22.827,22.827,0,0,0-11.479,5.231C48.113,32.75,49.873,29.614,52.538,28.75ZM48.412,41.745c2.91-4.348,8.2-5.93,11.005-6.473v5.979a13.807,13.807,0,0,0-6.566,9.587A23.016,23.016,0,0,1,48.412,41.745ZM46.621,71.583H81.379v5.962H46.621Zm32.187,23.7a4.437,4.437,0,0,1-4.432,4.431H53.624a4.436,4.436,0,0,1-4.432-4.431V81.045H78.808Z"/>
</svg>
