<svg xmlns="http://www.w3.org/2000/svg" width="128" height="128" viewBox="0 0 128 128">
  <title>ARACEAE</title>
  <path d="M83.129,68.083h-7.2c3.938-2.666,6.445-6.617,6.445-11.027,0-17.917-16.578-31.326-17.284-31.888a1.752,1.752,0,0,0-2.18,0c-.706.562-17.284,13.971-17.284,31.888,0,4.41,2.507,8.361,6.445,11.027h-7.2a1.75,1.75,0,0,0-1.75,1.75V79.3a1.75,1.75,0,0,0,1.75,1.75h.821V95.281a7.941,7.941,0,0,0,7.932,7.931H74.376a7.941,7.941,0,0,0,7.932-7.931V81.045h.821a1.75,1.75,0,0,0,1.75-1.75V69.833A1.75,1.75,0,0,0,83.129,68.083ZM62.062,55.591V46.8A1.964,1.964,0,0,1,64,44.86,1.94,1.94,0,0,1,65.938,46.8v8.793A10.974,10.974,0,0,0,64,57.6,10.974,10.974,0,0,0,62.062,55.591ZM65.75,68V63.5c0-4.016,1.918-5.279,7.462-8.339l.972-.538a13.9,13.9,0,0,0,4.056-3.25,26.6,26.6,0,0,1,.634,5.68C78.874,62.7,73.128,67.355,65.75,68ZM64,28.849c2.614,2.353,9.263,8.921,12.716,17.589,0,.613-.285,2.935-4.233,5.129l-.963.533c-.724.4-1.418.784-2.083,1.166V46.8a5.438,5.438,0,0,0-10.876,0v6.468C57.9,52.884,57.2,52.5,56.479,52.1l-.963-.533c-3.932-2.185-4.23-4.5-4.234-5.11C54.736,37.79,61.388,31.206,64,28.849ZM49.126,57.056a26.474,26.474,0,0,1,.636-5.678,13.916,13.916,0,0,0,4.054,3.248l.972.538c5.544,3.06,7.462,4.323,7.462,8.339V68C54.872,67.355,49.126,62.7,49.126,57.056Zm-2.5,14.527H81.379v5.962H46.621Zm32.187,23.7a4.437,4.437,0,0,1-4.432,4.431H53.624a4.437,4.437,0,0,1-4.432-4.431V81.045H78.808Z"/>
</svg>
