<svg xmlns="http://www.w3.org/2000/svg" width="128" height="128" viewBox="0 0 128 128">
  <title>BAMBOO</title>
  <path d="M98.208,84.449c-.6-1.3-5.952-12.785-8.854-15.687-1.747-1.747-5.677-3.533-8.846-4.784a21.246,21.246,0,0,0,6.072-3.427C88.9,58.236,93.1,49.207,93.574,48.186a1.751,1.751,0,0,0-2.323-2.324c-1.022.473-10.052,4.68-12.366,6.994a19.552,19.552,0,0,0-3.175,5.478,35.838,35.838,0,0,1-2.616-13.065A36.911,36.911,0,0,1,78,27.478,1.75,1.75,0,0,0,75.045,25.6a39.834,39.834,0,0,0-5.451,19.672,40.051,40.051,0,0,0,4,16.981H54.45a40.051,40.051,0,0,0,4-16.981A39.834,39.834,0,0,0,53,25.6a1.75,1.75,0,0,0-2.952,1.881,36.693,36.693,0,0,1,4.9,17.791A36.381,36.381,0,0,1,51.8,59.6c-1.2-3.088-2.991-7.139-4.744-8.892-2.771-2.77-13.7-7.863-14.94-8.436a1.751,1.751,0,0,0-2.323,2.323c.572,1.238,5.665,12.17,8.436,14.94,2.524,2.524,9.8,5.132,12.117,5.918a36.854,36.854,0,0,1,4.6,17.279,36.911,36.911,0,0,1-4.9,17.791A1.75,1.75,0,0,0,53,102.4a39.834,39.834,0,0,0,5.451-19.672,40.051,40.051,0,0,0-4-16.981H73.592a40.051,40.051,0,0,0-4,16.981A39.834,39.834,0,0,0,75.045,102.4,1.75,1.75,0,0,0,78,100.522a36.693,36.693,0,0,1-4.9-17.791,35.871,35.871,0,0,1,2.59-12.985c1.231,3.034,2.889,6.548,4.513,8.172,2.9,2.9,14.388,8.253,15.688,8.853a1.75,1.75,0,0,0,2.323-2.322ZM40.7,57.06c-1.261-1.262-3.571-5.462-5.569-9.448,3.986,2,8.186,4.309,9.448,5.57C45.8,54.4,47.4,57.924,48.628,61.106,45.445,59.879,41.921,58.278,40.7,57.06Zm40.657-1.729c.913-.913,3.869-2.57,6.829-4.083-1.512,2.959-3.169,5.914-4.083,6.828-.89.89-3.352,2.045-5.743,3C79.314,58.683,80.47,56.221,81.359,55.331Zm1.313,20.112c-1.315-1.315-3.046-5.152-4.351-8.558,3.405,1.3,7.241,3.035,8.558,4.351,1.434,1.434,4.009,6.235,5.986,10.194C88.907,79.452,84.106,76.877,82.672,75.443Z"/>
</svg>
