<svg xmlns="http://www.w3.org/2000/svg" width="128" height="128" viewBox="0 0 128 128">
  <title>BONSAI</title>
  <path d="M71.467,83.731a12.418,12.418,0,0,0,12.3-10.882A8.859,8.859,0,0,0,86.1,72.02a7.126,7.126,0,1,0,3.219-13.184,9.006,9.006,0,0,0-7.455-3.91,9.11,9.11,0,0,0-8.2,5.21,6.469,6.469,0,1,0,3.789,11.791,8.868,8.868,0,0,0,2.783.972,8.916,8.916,0,0,1-8.76,7.332H69.8A13.847,13.847,0,0,0,56.085,68.147a1.334,1.334,0,0,1-1.333-1.333v-.022a7.137,7.137,0,0,0,4.991-3.478h.676A13.849,13.849,0,0,0,74.252,49.481V46.05a8.39,8.39,0,0,0,2.889.533A8.467,8.467,0,1,0,76.3,29.692,10.82,10.82,0,0,0,67.2,24.787,10.943,10.943,0,0,0,57.233,31.3H57.1a7.645,7.645,0,1,0,4.559,13.773c.029.018.061.029.091.047v4.367a1.334,1.334,0,0,1-1.333,1.333H56.085a13.761,13.761,0,0,0-4.055.621,8.992,8.992,0,0,0-6.421-2.685,9.11,9.11,0,0,0-8.2,5.21,6.469,6.469,0,1,0,3.789,11.791,8.649,8.649,0,0,0,1.058.5v.564A13.849,13.849,0,0,0,56.085,80.647a1.336,1.336,0,0,1,1.334,1.334v4.6H36.667a1.75,1.75,0,0,0,0,3.5h2.454L40.9,101.727a1.75,1.75,0,0,0,1.73,1.486h42.75a1.75,1.75,0,0,0,1.73-1.486l1.774-11.644h2.454a1.75,1.75,0,0,0,0-3.5H69.919V83.731Zm4.527-15.162A2.965,2.965,0,0,1,70.8,66.6a2.934,2.934,0,0,1,3.627-2.892,1.751,1.751,0,0,0,2.07-1.231,5.565,5.565,0,0,1,10.35-.947,1.751,1.751,0,0,0,2.026.913,3.627,3.627,0,1,1-1.51,6.167,1.749,1.749,0,0,0-2.219-.123,5.629,5.629,0,0,1-6.755-.131A1.748,1.748,0,0,0,75.994,68.569ZM60.2,41.681A4.141,4.141,0,1,1,58.02,34.9a1.752,1.752,0,0,0,2.069-1.23,7.387,7.387,0,0,1,13.737-1.259,1.749,1.749,0,0,0,2.021.914,4.966,4.966,0,1,1-2.061,8.444,1.75,1.75,0,0,0-2.22-.123,7.361,7.361,0,0,1-8.965-.174A1.749,1.749,0,0,0,60.2,41.681Zm5.051,7.8V46.388a10.96,10.96,0,0,0,1.949.2,10.779,10.779,0,0,0,3.551-.618v3.516A10.338,10.338,0,0,1,60.694,59.8l0-.03a7.13,7.13,0,0,0-2.562-5.456h2.285A4.838,4.838,0,0,0,65.252,49.481ZM39.743,62.393a2.973,2.973,0,1,1-1.562-4.857,1.749,1.749,0,0,0,2.07-1.23,5.566,5.566,0,0,1,10.35-.949,1.756,1.756,0,0,0,2.023.914,3.627,3.627,0,1,1-1.506,6.167,1.752,1.752,0,0,0-2.221-.123,5.626,5.626,0,0,1-6.753-.131A1.751,1.751,0,0,0,39.743,62.393Zm44.129,37.32H44.128l-1.466-9.63H85.338ZM60.919,86.583v-4.6a4.84,4.84,0,0,0-4.834-4.834A10.343,10.343,0,0,1,45.755,66.87a9.018,9.018,0,0,0,4.09-1.026,7.06,7.06,0,0,0,1.407.649v.321a4.838,4.838,0,0,0,4.833,4.833A10.346,10.346,0,0,1,66.419,81.981v4.6Z"/>
</svg>
