<svg xmlns="http://www.w3.org/2000/svg" width="128" height="128" viewBox="0 0 128 128">
  <title>BOOT</title>
  <path d="M78.287,76.25a9.214,9.214,0,0,1-4.74-1.313l-.773-.464a9.269,9.269,0,0,1-4.436-8.7l3.405-39.085A1.749,1.749,0,0,0,70,24.788H38.75A1.75,1.75,0,0,0,37,26.642l2.722,45.437A26.369,26.369,0,0,0,37,83.723v17.739a1.75,1.75,0,0,0,1.75,1.75H55a1.75,1.75,0,0,0,1.75-1.75v-1.294l4.3,2.767a1.753,1.753,0,0,0,.946.277H89.25a1.749,1.749,0,0,0,1.75-1.75v-12.5A12.727,12.727,0,0,0,78.287,76.25Zm-7.314,1.223.772.464a12.715,12.715,0,0,0,6.543,1.813A9.223,9.223,0,0,1,87.5,88.962v1.75h-47V83.723a22.836,22.836,0,0,1,2.554-10.47,1.752,1.752,0,0,0,.193-.91L41.7,46.5H66.5L64.852,65.471A12.786,12.786,0,0,0,70.973,77.473ZM66.809,43H41.489l-.254-4.25H67.179Zm1.282-14.712-.607,6.962H41.025l-.417-6.962ZM87.5,99.712H62.514L55.946,95.49a1.75,1.75,0,0,0-2.7,1.472v2.75H40.5v-5.5h47Z"/>
</svg>
