<svg xmlns="http://www.w3.org/2000/svg" width="128" height="128" viewBox="0 0 128 128">
  <title>BOTANICAL</title>
  <g>
    <path d="M77.083,51.417H65.75V39.708c2.174-.2,5.657-.8,7.4-2.536,2.248-2.247,3.8-8.943,4.087-10.262a1.75,1.75,0,0,0-2.083-2.083c-1.319.288-8.013,1.839-10.261,4.087h0c-2.207,2.207-2.57,7.22-2.629,8.805-2.75-1.876-8.23-3.148-9.411-3.406A1.75,1.75,0,0,0,50.766,36.4c.288,1.32,1.839,8.014,4.087,10.262,1.74,1.741,5.223,2.333,7.4,2.536v2.223H50.917a1.749,1.749,0,0,0-1.75,1.75v8.166a1.749,1.749,0,0,0,1.75,1.75h1V91.129a12.083,12.083,0,1,0,24.166,0V63.083h1a1.749,1.749,0,0,0,1.75-1.75V53.167A1.749,1.749,0,0,0,77.083,51.417ZM67.364,31.389h0c.8-.8,3.317-1.731,5.736-2.428-.7,2.418-1.628,4.935-2.429,5.736-.745.746-2.867,1.24-4.776,1.469C66.125,34.257,66.618,32.135,67.364,31.389ZM57.328,44.184c-.8-.8-1.731-3.318-2.428-5.737,2.419.7,4.937,1.629,5.736,2.427.746.746,1.239,2.868,1.468,4.778C60.2,45.422,58.073,44.93,57.328,44.184ZM52.667,54.917H75.333v4.666H52.667ZM72.583,91.129a8.583,8.583,0,1,1-17.166,0V63.083H72.583Z"/>
    <path d="M64,97.213a6.091,6.091,0,0,0,6.083-6.084V75.738A1.75,1.75,0,0,0,67.6,74.147a7.93,7.93,0,0,0-1.18.676,14.933,14.933,0,0,1-6.952,2.487,1.749,1.749,0,0,0-1.555,1.739v12.08A6.091,6.091,0,0,0,64,97.213ZM61.417,80.557a18.5,18.5,0,0,0,5.166-1.75V91.129a2.583,2.583,0,1,1-5.166,0Z"/>
  </g>
</svg>
