<svg xmlns="http://www.w3.org/2000/svg" width="128" height="128" viewBox="0 0 128 128">
  <title>BUCKET</title>
  <path d="M89.667,45.25H86.138a22.207,22.207,0,0,0-44.276,0H38.333A1.75,1.75,0,0,0,36.583,47v8.809a1.75,1.75,0,0,0,1.75,1.75h1.689l3.484,39.768a6.414,6.414,0,0,0,6.425,5.885H78.069a6.414,6.414,0,0,0,6.425-5.885l3.484-39.768h1.689a1.75,1.75,0,0,0,1.75-1.75V47A1.75,1.75,0,0,0,89.667,45.25ZM64,28.288A18.732,18.732,0,0,1,82.624,45.25H45.376A18.732,18.732,0,0,1,64,28.288ZM40.083,48.75H87.917v5.309H40.083ZM81.008,97.021a2.935,2.935,0,0,1-2.939,2.691H49.931a2.935,2.935,0,0,1-2.939-2.691L43.535,57.559h40.93Z"/>
</svg>
