<svg xmlns="http://www.w3.org/2000/svg" width="128" height="128" viewBox="0 0 128 128">
  <title>BUTTERFLY</title>
  <g>
    <path d="M84.311,38.766a1.744,1.744,0,0,0-1.5-.131,35.729,35.729,0,0,0-12.733,8.788A6.8,6.8,0,0,0,66.516,44.1c1.468-2.8,4.829-7.912,10.391-9.333a1.749,1.749,0,1,0-.865-3.39C69.833,32.966,65.979,37.971,64,41.392c-1.979-3.421-5.833-8.426-12.042-10.011a1.749,1.749,0,1,0-.865,3.39c5.562,1.421,8.923,6.533,10.391,9.333a6.809,6.809,0,0,0-3.568,3.32,35.721,35.721,0,0,0-12.732-8.789,1.751,1.751,0,0,0-1.495.131c-.771.453-18.9,11.311-18.9,30.943a1.751,1.751,0,0,0,1.149,1.644l6.786,2.486c-1.5,2.666-3.96,7.8-4.233,13.26-.191,3.858,1.407,6.842,4.5,8.4a12.131,12.131,0,0,0,5.5,1.176c5.689,0,12.921-2.908,19.858-8.147a6.767,6.767,0,0,0,11.307,0c6.937,5.239,14.169,8.147,19.858,8.147a12.147,12.147,0,0,0,5.5-1.175c3.094-1.563,4.692-4.547,4.5-8.405-.273-5.465-2.729-10.594-4.233-13.26l6.786-2.486a1.751,1.751,0,0,0,1.149-1.644C103.213,50.077,85.082,39.219,84.311,38.766ZM34.567,92.379c-1.836-.927-2.705-2.645-2.582-5.107.337-6.763,4.741-13.291,4.785-13.356a1.752,1.752,0,0,0-.843-2.631L28.314,68.5c.663-14.839,13.318-24.177,16.452-26.266,5.252,2.182,9.582,6.3,12.457,9.617V84.8c0,.053.006.105.008.158C47.7,92.524,38.665,94.446,34.567,92.379ZM67.277,84.8a3.277,3.277,0,0,1-6.554,0V50.392a3.277,3.277,0,1,1,6.554,0Zm24.8-13.519a1.752,1.752,0,0,0-.843,2.631c.044.065,4.448,6.593,4.785,13.356.123,2.462-.746,4.18-2.582,5.107-4.1,2.068-13.136.145-22.664-7.418,0-.053.008-.1.008-.157V51.847c2.876-3.316,7.207-7.436,12.459-9.618,3.135,2.083,15.789,11.389,16.45,26.267Z"/>
    <path d="M42.548,54.072a6.357,6.357,0,1,0,6.357,6.358A6.365,6.365,0,0,0,42.548,54.072Zm0,9.214a2.857,2.857,0,1,1,2.857-2.856A2.86,2.86,0,0,1,42.548,63.286Z"/>
    <path d="M79.1,60.43a6.357,6.357,0,1,0,6.357-6.358A6.363,6.363,0,0,0,79.1,60.43Zm9.214,0a2.857,2.857,0,1,1-2.857-2.858A2.86,2.86,0,0,1,88.309,60.43Z"/>
  </g>
</svg>
