<svg xmlns="http://www.w3.org/2000/svg" width="128" height="128" viewBox="0 0 128 128">
  <title>CACTUS</title>
  <g>
    <path d="M87.412,61H80.181a44.749,44.749,0,0,0,1.905-9.271h1.8a1.75,1.75,0,0,0,0-3.5h-1.8a18.09,18.09,0,0,0-.279-1.891,19.941,19.941,0,0,0,3.409-2.612A11.093,11.093,0,1,0,69.52,28.037a20.955,20.955,0,0,0-2.966,3.98,17.814,17.814,0,0,0-15.931,5.717L49.2,36.622a1.75,1.75,0,0,0-2.158,2.756l1.47,1.152a18.007,18.007,0,0,0-2.594,7.7H44.167a1.75,1.75,0,0,0,0,3.5h1.746A43.983,43.983,0,0,0,47.813,61H40.588a1.75,1.75,0,0,0-1.75,1.75V74.331a1.75,1.75,0,0,0,1.75,1.75h1.4V93.9a9.326,9.326,0,0,0,9.316,9.315H76.7A9.326,9.326,0,0,0,86.016,93.9V76.081h1.4a1.75,1.75,0,0,0,1.75-1.75V62.75A1.75,1.75,0,0,0,87.412,61ZM71.994,30.512A7.593,7.593,0,1,1,82.732,41.251a14.444,14.444,0,0,1-2.021,1.615A17.92,17.92,0,0,0,79.5,40.552L81,39.374a1.75,1.75,0,0,0-2.158-2.756l-1.449,1.135A18.186,18.186,0,0,0,70.125,32.9,15.364,15.364,0,0,1,71.994,30.512ZM49.333,49.983a14.667,14.667,0,0,1,29.334,0A38.243,38.243,0,0,1,76.508,61H51.492A38.4,38.4,0,0,1,49.333,49.983ZM42.338,64.5H77.752l.012,0,.012,0h7.886v8.081H42.338ZM82.516,93.9A5.822,5.822,0,0,1,76.7,99.712H51.3A5.822,5.822,0,0,1,45.484,93.9V76.081H82.516Z"/>
    <path d="M58.833,41a1.75,1.75,0,0,0-1.75,1.75v2.5a1.75,1.75,0,0,0,3.5,0v-2.5A1.75,1.75,0,0,0,58.833,41Z"/>
    <path d="M69.167,41a1.75,1.75,0,0,0-1.75,1.75v2.5a1.75,1.75,0,0,0,3.5,0v-2.5A1.75,1.75,0,0,0,69.167,41Z"/>
    <path d="M58.833,51.313a1.749,1.749,0,0,0-1.75,1.75v2.5a1.75,1.75,0,0,0,3.5,0v-2.5A1.749,1.749,0,0,0,58.833,51.313Z"/>
    <path d="M69.167,51.313a1.749,1.749,0,0,0-1.75,1.75v2.5a1.75,1.75,0,0,0,3.5,0v-2.5A1.749,1.749,0,0,0,69.167,51.313Z"/>
  </g>
</svg>
