<svg xmlns="http://www.w3.org/2000/svg" width="128" height="128" viewBox="0 0 128 128">
  <title>CHINESE MONEY PLANT</title>
  <path d="M87.726,44.079c-4.71-4.71-11.055-5.047-17-1.215q.3-2.182.49-4.037l5.363-3.91a1.751,1.751,0,0,0-2.063-2.829l-2.971,2.167a17.678,17.678,0,0,0-.317-4.662c-.824-3.167-2.613-4.264-3.968-4.626-3.908-1.042-8.8,2.77-11.181,4.927-5.6-4.78-11.947-5.01-16.512-.445A13.7,13.7,0,0,0,58.945,48.827c4.546-4.546,4.335-10.862-.39-16.444,2.478-2.2,6-4.522,7.8-4.035.248.067,1,.268,1.485,2.127.31,1.193.571,4.827-1.143,15.712-5.429,5.529-6.946,11.838-4.377,17.063H41.948A1.751,1.751,0,0,0,40.2,65V75.907a1.75,1.75,0,0,0,1.75,1.75h1.214v16.68a8.886,8.886,0,0,0,8.876,8.875H75.962a8.886,8.886,0,0,0,8.876-8.875V77.657h1.214a1.75,1.75,0,0,0,1.75-1.75V66.784A16.129,16.129,0,0,0,87.726,44.079ZM56.47,46.353A10.2,10.2,0,0,1,42.042,31.924a7.006,7.006,0,0,1,5.064-2.276c3.5,0,6.61,2.731,7.76,3.881C56.558,35.221,61.675,41.147,56.47,46.353Zm12.87,2.129c1.419-1.418,5.243-4.779,9.58-4.779a8.766,8.766,0,0,1,6.331,2.85,12.614,12.614,0,0,1-17.839,17.84C60.925,57.906,67.248,50.575,69.34,48.482ZM43.7,66.75H64.831c.038.038.068.079.107.118A16.1,16.1,0,0,0,84.3,69.46v4.7H43.7Zm37.64,27.587a5.382,5.382,0,0,1-5.376,5.375H52.038a5.382,5.382,0,0,1-5.376-5.375V77.657H81.338Z"/>
</svg>
