<svg xmlns="http://www.w3.org/2000/svg" width="128" height="128" viewBox="0 0 128 128">
  <title>ENGLISH IVY</title>
  <path d="M94.544,48.07a1.753,1.753,0,0,0-.884-1.129,16.785,16.785,0,0,0-6.894-1.692,20.348,20.348,0,0,0,3.458-10.837,1.756,1.756,0,0,0-.513-1.265,1.829,1.829,0,0,0-1.264-.512,20.355,20.355,0,0,0-10.838,3.458,16.768,16.768,0,0,0-1.692-6.9,1.75,1.75,0,0,0-2.54-.627c-5.43,3.73-6.133,6.511-6.7,8.745-.032.127-.063.244-.093.362-.053-.076-.11-.148-.157-.228a8.152,8.152,0,0,1-.791-2.245c-.652-2.579-1.462-5.788-7.755-10.11a1.751,1.751,0,0,0-2.54.628,19.254,19.254,0,0,0-1.955,8.544A23.776,23.776,0,0,0,40.324,29.93a1.832,1.832,0,0,0-1.263.513,1.748,1.748,0,0,0-.513,1.264A23.756,23.756,0,0,0,42.885,44.77a19.218,19.218,0,0,0-8.544,1.955,1.749,1.749,0,0,0-.628,2.54c4.322,6.293,7.53,7.1,10.109,7.756a8.14,8.14,0,0,1,2.245.791,8.565,8.565,0,0,1,2.115,2.08c.88,1.087,2.183,2.7,4.137,2.7a4.944,4.944,0,0,0,2.717-.939c2.692-1.771,3.271-5.843,3.228-9.252a60.1,60.1,0,0,1,4.415,5.853,32.213,32.213,0,0,0-4.338,9.833H44.871a1.75,1.75,0,0,0-1.75,1.75V79.3a1.75,1.75,0,0,0,1.75,1.75h.821V95.281a7.941,7.941,0,0,0,7.932,7.931H74.376a7.941,7.941,0,0,0,7.932-7.931V81.045h.821a1.75,1.75,0,0,0,1.75-1.75V69.833a1.75,1.75,0,0,0-1.75-1.75H70.491a25.974,25.974,0,0,0-3.619-9.7,44.214,44.214,0,0,1,6.054-6.617c-.075,3.019.408,6.692,2.875,8.317a4.454,4.454,0,0,0,2.448.841c1.792,0,2.987-1.476,3.728-2.39A7.087,7.087,0,0,1,83.7,56.823a6.746,6.746,0,0,1,1.839-.644c2.234-.564,5.016-1.267,8.745-6.7A1.754,1.754,0,0,0,94.544,48.07Zm-39.761-1.9a1.747,1.747,0,0,0-.481,1.566c.7,3.656.809,9.677-1.19,10.993-.875.576-.892.591-2.211-1.038a11.612,11.612,0,0,0-3.05-2.888,11.233,11.233,0,0,0-3.171-1.173c-1.935-.489-3.928-.993-6.783-4.578,2.12-.693,5.653-1.39,8.921.09a1.75,1.75,0,0,0,1.873-2.912A21.919,21.919,0,0,1,42.177,33.56a22.127,22.127,0,0,1,12.667,6.513A1.75,1.75,0,0,0,57.756,38.2c-1.469-3.245-.773-6.79-.083-8.916,3.58,2.852,4.083,4.843,4.571,6.777a11.278,11.278,0,0,0,1.173,3.17,8.316,8.316,0,0,0,1.125,1.474c-.071.059-.142.118-.214.176-1.151.933-3.183,2.59-2.045,5.249a30.548,30.548,0,0,1-5.933-.446A1.739,1.739,0,0,0,54.783,46.167ZM78.808,95.281a4.437,4.437,0,0,1-4.432,4.431H53.624a4.437,4.437,0,0,1-4.432-4.431V81.045H78.808Zm2.571-17.736H46.621V71.583H81.379ZM66.96,68.083h-5a28.092,28.092,0,0,1,2.738-6.4A21.18,21.18,0,0,1,66.96,68.083ZM64.85,55.21a67.836,67.836,0,0,0-4.35-5.586,20.621,20.621,0,0,0,5.2-.414,13.289,13.289,0,0,0,4.021.714A46.909,46.909,0,0,0,64.85,55.21Zm19.835-2.424a9.76,9.76,0,0,0-2.765,1.025,10.039,10.039,0,0,0-2.663,2.517,6.32,6.32,0,0,1-1,1.085,1.375,1.375,0,0,1-.535-.257c-1.593-1.049-1.478-6.036-.9-9.077A1.751,1.751,0,0,0,75.106,46a1.721,1.721,0,0,0-.326.031c-3.041.579-8.028.7-9.077-.9a2.2,2.2,0,0,1-.261-.5A5.385,5.385,0,0,1,66.531,43.6a10.073,10.073,0,0,0,2.516-2.664,9.743,9.743,0,0,0,1.025-2.764,8.7,8.7,0,0,1,3.5-5.377,10.261,10.261,0,0,1-.174,7.021,1.75,1.75,0,0,0,2.912,1.874A18.379,18.379,0,0,1,86.57,36.287a18.6,18.6,0,0,1-5.4,10.265,1.75,1.75,0,0,0,1.873,2.912,10.256,10.256,0,0,1,7.023-.175A8.7,8.7,0,0,1,84.685,52.786Z"/>
</svg>
