<svg xmlns="http://www.w3.org/2000/svg" width="128" height="128" viewBox="0 0 128 128">
  <title>FERN</title>
  <path d="M82.7,74.917c-4.522,0-12.791,3.388-16.945,5.227V68.833c3.518,1.544,9.759,4.039,13.349,4.039,5.692,0,10.151-2.969,10.151-6.759S84.791,59.355,79.1,59.355c-3.59,0-9.831,2.5-13.349,4.038V54.24c2.917,1.256,7.614,3.071,10.4,3.071,4.772,0,8.511-2.54,8.511-5.781s-3.739-5.78-8.511-5.78c-2.786,0-7.483,1.814-10.4,3.07V41.668c2.193.912,5.291,2.037,7.227,2.037,3.845,0,6.745-2.032,6.745-4.727s-2.9-4.728-6.745-4.728a18.814,18.814,0,0,0-5.689,1.426A15.611,15.611,0,0,0,68.4,30.985c0-3.533-1.892-6.2-4.4-6.2s-4.4,2.665-4.4,6.2a15.611,15.611,0,0,0,1.113,4.691,18.814,18.814,0,0,0-5.689-1.426c-3.845,0-6.745,2.032-6.745,4.728s2.9,4.727,6.745,4.727c1.936,0,5.034-1.125,7.227-2.037V48.82c-2.917-1.256-7.614-3.07-10.4-3.07-4.772,0-8.511,2.539-8.511,5.78s3.739,5.781,8.511,5.781c2.786,0,7.483-1.815,10.4-3.071v9.153c-3.518-1.542-9.759-4.038-13.349-4.038-5.692,0-10.151,2.969-10.151,6.758s4.459,6.759,10.151,6.759c3.59,0,9.831-2.5,13.349-4.039V80.144c-4.154-1.839-12.423-5.227-16.945-5.227-6.814,0-12.152,3.492-12.152,7.951s5.338,7.951,12.152,7.951c4.522,0,12.791-3.388,16.945-5.227v15.871a1.75,1.75,0,0,0,3.5,0V85.592C69.9,87.431,78.173,90.819,82.7,90.819c6.814,0,12.152-3.492,12.152-7.951S89.509,74.917,82.7,74.917ZM79.1,62.855c3.806,0,6.651,1.72,6.651,3.258s-2.845,3.259-6.651,3.259c-2.466,0-7.237-1.757-10.805-3.259C71.862,64.612,76.632,62.855,79.1,62.855ZM76.15,49.25c3.012,0,5.011,1.372,5.011,2.28s-2,2.281-5.011,2.281c-1.769,0-5.08-1.166-7.805-2.281C71.07,50.416,74.381,49.25,76.15,49.25Zm-3.173-11.5c2.094,0,3.245.922,3.245,1.228s-1.151,1.227-3.245,1.227a16.3,16.3,0,0,1-4.527-1.227A16.244,16.244,0,0,1,72.977,37.75Zm-9.011-9.468a3.325,3.325,0,0,1,.935,2.7,12.808,12.808,0,0,1-.9,3.474,12.808,12.808,0,0,1-.9-3.474A3.674,3.674,0,0,1,63.966,28.282ZM55.023,40.205c-2.094,0-3.245-.922-3.245-1.227s1.151-1.228,3.245-1.228a16.27,16.27,0,0,1,4.527,1.228A16.27,16.27,0,0,1,55.023,40.205ZM51.85,53.811c-3.012,0-5.011-1.373-5.011-2.281s2-2.28,5.011-2.28c1.769,0,5.08,1.166,7.805,2.28C56.93,52.645,53.619,53.811,51.85,53.811ZM48.9,69.372c-3.806,0-6.651-1.721-6.651-3.259S45.1,62.855,48.9,62.855c2.467,0,7.237,1.757,10.805,3.258C56.138,67.615,51.367,69.372,48.9,69.372Zm-3.6,17.947c-5.1,0-8.652-2.345-8.652-4.451s3.553-4.451,8.652-4.451c3.328,0,9.924,2.509,14.441,4.451C55.231,84.811,48.636,87.319,45.305,87.319Zm37.39,0c-3.328,0-9.924-2.508-14.441-4.451,4.515-1.942,11.11-4.451,14.441-4.451,5.1,0,8.652,2.346,8.652,4.451S87.794,87.319,82.7,87.319Z"/>
</svg>
