<svg xmlns="http://www.w3.org/2000/svg" width="128" height="128" viewBox="0 0 128 128">
  <title>FERN PLANT</title>
  <path d="M82.517,56.35a9.576,9.576,0,0,0,2.8-5.48A6.478,6.478,0,0,0,83.6,45.4a5.949,5.949,0,0,0-2.354-1.432c2.817-3.072,3.159-7.429.7-9.886A5.666,5.666,0,0,0,78.664,32.5a6.667,6.667,0,0,0,.642-2.08,4.824,4.824,0,0,0-5.583-5.583,7.186,7.186,0,0,0-4.111,2.092h0a8.266,8.266,0,0,0-.755.922,5.384,5.384,0,0,0-9.714,0,8.266,8.266,0,0,0-.755-.922h0a7.186,7.186,0,0,0-4.111-2.092,4.823,4.823,0,0,0-5.583,5.583,6.673,6.673,0,0,0,.642,2.081,5.654,5.654,0,0,0-3.286,1.579c-2.456,2.456-2.114,6.812.7,9.885A5.951,5.951,0,0,0,44.4,45.394a6.481,6.481,0,0,0-1.712,5.476,9.576,9.576,0,0,0,2.8,5.48c2.446,2.446,13.252,7.965,16.767,9.728v2H44.871a1.75,1.75,0,0,0-1.75,1.75V79.3a1.75,1.75,0,0,0,1.75,1.75h.821V95.281a7.941,7.941,0,0,0,7.932,7.931H74.376a7.941,7.941,0,0,0,7.932-7.931V81.045h.821a1.75,1.75,0,0,0,1.75-1.75V69.833a1.75,1.75,0,0,0-1.75-1.75H65.75v-2C69.265,64.315,80.071,58.8,82.517,56.35ZM78.808,95.281a4.437,4.437,0,0,1-4.432,4.431H53.624a4.437,4.437,0,0,1-4.432-4.431V81.045H78.808Zm2.571-17.736H46.621V71.583H81.379ZM65.75,41.224c.721-.363,1.7-.862,2.781-1.427-.928,1.582-1.9,3.341-2.781,5ZM62.25,44.8c-.886-1.662-1.853-3.421-2.781-5,1.081.565,2.06,1.064,2.781,1.427Zm3.5,8.311c.851-.428,2.13-1.077,3.6-1.841-1.2,2.021-2.47,4.347-3.6,6.476Zm16.092-2.685a6.167,6.167,0,0,1-1.8,3.449C78.715,55.2,73.081,58.346,68,61c2.652-5.084,5.8-10.718,7.122-12.045a6.164,6.164,0,0,1,3.449-1.8,2.709,2.709,0,0,1,3.273,3.273ZM78.489,41.8c-1.159,1.16-5.985,3.868-10.479,6.223,2.355-4.494,5.063-9.319,6.222-10.478h0a5.226,5.226,0,0,1,3.52-1.626,2.379,2.379,0,0,1,1.724.639C80.629,37.706,80.177,40.107,78.489,41.8ZM72.087,29.4a3.72,3.72,0,0,1,2.079-1.094,1.349,1.349,0,0,1,1.668,1.667,3.728,3.728,0,0,1-1.095,2.079,44.928,44.928,0,0,1-6.681,4.03A44.768,44.768,0,0,1,72.087,29.4ZM64,28.288a1.837,1.837,0,0,1,1.875,1.791A29.393,29.393,0,0,1,64,35.664a29.323,29.323,0,0,1-1.875-5.585A1.837,1.837,0,0,1,64,28.288Zm-11.49.362a1.42,1.42,0,0,1,1.021-.362,2.195,2.195,0,0,1,.3.02A3.72,3.72,0,0,1,55.913,29.4a44.885,44.885,0,0,1,4.029,6.681,44.752,44.752,0,0,1-6.681-4.03,3.722,3.722,0,0,1-1.1-2.078A1.6,1.6,0,0,1,52.51,28.65Zm-3.986,7.9a2.38,2.38,0,0,1,1.724-.64,5.226,5.226,0,0,1,3.52,1.626h0c1.159,1.158,3.867,5.984,6.222,10.478C55.5,45.663,50.671,42.955,49.511,41.8,47.823,40.107,47.371,37.706,48.524,36.553Zm-.566,17.322a6.167,6.167,0,0,1-1.8-3.449,3.057,3.057,0,0,1,.716-2.557,2.807,2.807,0,0,1,2.024-.75,4.252,4.252,0,0,1,.533.034,6.164,6.164,0,0,1,3.449,1.8C54.206,50.28,57.35,55.914,60,61,54.919,58.345,49.285,55.2,47.958,53.875Zm10.7-2.6c1.467.764,2.746,1.413,3.6,1.841v4.635C61.123,55.617,59.851,53.291,58.653,51.27Z"/>
</svg>
