<svg xmlns="http://www.w3.org/2000/svg" width="128" height="128" viewBox="0 0 128 128">
  <title>FERTILIZER</title>
  <g>
    <path d="M64,45.723A17.841,17.841,0,0,0,49.654,74.216a1.765,1.765,0,0,0,.157.21A17.864,17.864,0,1,0,64,45.723Zm0,3.5a14.4,14.4,0,0,1,13.677,9.966,13.406,13.406,0,0,0-18.791,6.742,9.326,9.326,0,0,0-7.912,3.709A14.344,14.344,0,0,1,64,49.223Zm0,28.75a14.341,14.341,0,0,1-10.92-5.051,5.76,5.76,0,0,1,6.6-3.357,1.751,1.751,0,0,0,2.071-1.23A9.935,9.935,0,0,1,78.355,64,14.383,14.383,0,0,1,64,77.973Z"/>
    <path d="M92.69,24.787H35.31a1.749,1.749,0,0,0-1.75,1.75V41.2a12.515,12.515,0,0,0,1.684,6.266,9.015,9.015,0,0,1,1.212,4.512V76.023a9.006,9.006,0,0,1-1.213,4.512A12.527,12.527,0,0,0,33.56,86.8v14.662a1.749,1.749,0,0,0,1.75,1.75H92.69a1.749,1.749,0,0,0,1.75-1.75V86.8a12.518,12.518,0,0,0-1.684-6.266,9.015,9.015,0,0,1-1.212-4.512V51.977a9.006,9.006,0,0,1,1.213-4.512A12.524,12.524,0,0,0,94.44,41.2V26.537A1.749,1.749,0,0,0,92.69,24.787ZM37.06,86.8a9.02,9.02,0,0,1,1.212-4.512,12.509,12.509,0,0,0,1.684-6.266V51.977a12.509,12.509,0,0,0-1.684-6.266A9.02,9.02,0,0,1,37.06,41.2V36H90.94v5.2a9.02,9.02,0,0,1-1.212,4.512,12.509,12.509,0,0,0-1.684,6.266V76.023a12.509,12.509,0,0,0,1.684,6.266A9.02,9.02,0,0,1,90.94,86.8V92H37.06ZM90.94,28.287V32.5H37.06V28.287ZM37.06,99.713V95.5H90.94v4.213Z"/>
  </g>
</svg>
