<svg xmlns="http://www.w3.org/2000/svg" width="128" height="128" viewBox="0 0 128 128" fill="#FFFFFF">
  <title>FIDDLE FIG</title>
  <path d="M91.838,28.028a1.744,1.744,0,0,0-.312-.313,11.171,11.171,0,0,0-9.907-1.985,8.852,8.852,0,0,0-6,4.858c-1.241,3.2-2.994,4.169-5.9,5.784-2.7,1.5-2.724,4.051-2.737,5.738,0,.127,0,.244,0,.366a5.712,5.712,0,0,0-2.94-3.788c-3.761-2.09-6.03-3.352-7.657-7.542-1.032-2.656-3.817-4.9-7.268-5.858a13.662,13.662,0,0,0-12.11,2.427,1.812,1.812,0,0,0-.312.313,13.655,13.655,0,0,0-2.426,12.109c.957,3.451,3.2,6.236,5.857,7.267,4.191,1.628,5.453,3.9,7.542,7.657,1.768,3.18,4.7,3.2,6.85,3.22a6.729,6.729,0,0,1,3.2.5,10.061,10.061,0,0,0,4.969,1.139,16.764,16.764,0,0,0,1.9-.115,28.265,28.265,0,0,0-.108,3.441H41.948A1.751,1.751,0,0,0,40.2,65V75.907a1.75,1.75,0,0,0,1.75,1.75h1.214v16.68a8.886,8.886,0,0,0,8.876,8.875H75.962a8.886,8.886,0,0,0,8.876-8.875V77.657h1.214a1.75,1.75,0,0,0,1.75-1.75V65a1.751,1.751,0,0,0-1.75-1.75H68a24.211,24.211,0,0,1,1.6-9.459,13.62,13.62,0,0,0,1.372.073,8.334,8.334,0,0,0,4.117-.947,5.038,5.038,0,0,1,2.357-.351c1.687-.013,4.236-.033,5.738-2.736,1.615-2.905,2.59-4.659,5.785-5.9h0a8.855,8.855,0,0,0,4.858-6A11.173,11.173,0,0,0,91.838,28.028Zm-10.5,66.309a5.382,5.382,0,0,1-5.376,5.375H52.038a5.382,5.382,0,0,1-5.376-5.375V77.657H81.338ZM84.3,74.157H43.7V66.75H84.3ZM59.458,55.747a9.55,9.55,0,0,0-4.913-.965c-2.253-.018-3.105-.139-3.817-1.421-2.128-3.828-3.966-7.134-9.334-9.219-1.622-.63-3.095-2.57-3.753-4.941a10.175,10.175,0,0,1,1.687-8.853,10.168,10.168,0,0,1,8.853-1.687c2.372.658,4.311,2.131,4.941,3.752,2.085,5.369,5.391,7.206,9.219,9.334,1.282.713,1.4,1.565,1.421,3.818a9.555,9.555,0,0,0,.965,4.914,6.89,6.89,0,0,1,.664,3.457L52.569,41.115A1.749,1.749,0,0,0,50.1,43.589L62.911,56.405A6.916,6.916,0,0,1,59.458,55.747ZM90.45,37A5.52,5.52,0,0,1,87.7,40.668h0c-4.372,1.7-5.857,4.369-7.576,7.461-.461.829-.955.924-2.706.937a7.972,7.972,0,0,0-4.068.813,4.632,4.632,0,0,1-2.137.472,22.709,22.709,0,0,1,4.026-5.287,1.75,1.75,0,0,0-2.308-2.631A22.975,22.975,0,0,0,69.7,46.162a8.036,8.036,0,0,0,.79-4.024c.014-1.751.108-2.246.937-2.707,3.093-1.719,5.764-3.2,7.461-7.576a5.519,5.519,0,0,1,3.67-2.752,7.693,7.693,0,0,1,6.65,1.246A7.688,7.688,0,0,1,90.45,37Z"/>
</svg>
