<svg xmlns="http://www.w3.org/2000/svg" width="128" height="128" viewBox="0 0 128 128">
  <title>FLOWER POT</title>
  <g>
    <path d="M86.052,63.25H65.75V59.194a7.092,7.092,0,0,0,4.119-2.924,7.043,7.043,0,0,0,8.3-8.3,7.046,7.046,0,0,0,0-11.738,7.043,7.043,0,0,0-8.3-8.3,7.045,7.045,0,0,0-11.738,0,7.044,7.044,0,0,0-8.3,8.3,7.046,7.046,0,0,0,0,11.738,7.044,7.044,0,0,0,8.3,8.3,7.092,7.092,0,0,0,4.119,2.924V63.25h-20.3A1.75,1.75,0,0,0,40.2,65V75.907a1.75,1.75,0,0,0,1.75,1.75h1.214v16.68a8.886,8.886,0,0,0,8.876,8.876H75.962a8.886,8.886,0,0,0,8.876-8.876V77.657h1.214a1.75,1.75,0,0,0,1.75-1.75V65A1.75,1.75,0,0,0,86.052,63.25Zm-25.4-9.69a1.749,1.749,0,0,0-2.393-.993,3.549,3.549,0,0,1-4.729-4.727,1.752,1.752,0,0,0-.991-2.4,3.549,3.549,0,0,1,0-6.686,1.752,1.752,0,0,0,.991-2.4,3.55,3.55,0,0,1,4.729-4.727,1.749,1.749,0,0,0,2.393-.992,3.55,3.55,0,0,1,6.688,0,1.749,1.749,0,0,0,2.393.992,3.549,3.549,0,0,1,4.729,4.727,1.752,1.752,0,0,0,.991,2.4,3.549,3.549,0,0,1,0,6.686,1.752,1.752,0,0,0-.991,2.4,3.549,3.549,0,0,1-4.729,4.727,1.749,1.749,0,0,0-2.393.993,3.551,3.551,0,0,1-6.688,0ZM43.7,66.75H84.3v7.407H43.7Zm37.64,27.587a5.383,5.383,0,0,1-5.376,5.376H52.038a5.383,5.383,0,0,1-5.376-5.376V77.657H81.338Z"/>
    <path d="M71.057,42.1A7.057,7.057,0,1,0,64,49.159,7.066,7.066,0,0,0,71.057,42.1Zm-10.614,0A3.557,3.557,0,1,1,64,45.659,3.562,3.562,0,0,1,60.443,42.1Z"/>
  </g>
</svg>
