<svg xmlns="http://www.w3.org/2000/svg" width="128" height="128" viewBox="0 0 128 128">
  <title>GARDENING</title>
  <g>
    <path d="M102.414,65.051,94.921,60.2a1.73,1.73,0,0,0-.507-.217,8.2,8.2,0,0,0-.718-5.4c-2.381-4.392-1.442-7.063.114-11.49,1.362-3.874-1.375-6.133-3.374-7.782a7.713,7.713,0,0,1-2.583-2.871c-1.443-4.3-7.456-7.174-8.136-7.487a1.752,1.752,0,0,0-1.462,0c-.682.313-6.695,3.183-8.138,7.487a7.721,7.721,0,0,1-2.583,2.871c-2,1.649-4.735,3.908-3.374,7.782,1.556,4.427,2.5,7.1.113,11.49a8.2,8.2,0,0,0-.717,5.4,1.7,1.7,0,0,0-.507.217l-6.541,4.237L49.966,60.2a1.75,1.75,0,0,0-1.9,0l-6.541,4.237L34.981,60.2a1.748,1.748,0,0,0-1.9,0l-7.493,4.853a1.749,1.749,0,0,0-.8,1.469v34.943a1.749,1.749,0,0,0,1.75,1.75h74.926a1.749,1.749,0,0,0,1.75-1.75V66.52A1.749,1.749,0,0,0,102.414,65.051ZM67.463,41.927c-.48-1.364.09-2.1,2.3-3.923,1.413-1.166,3.014-2.488,3.674-4.459.706-2.107,3.776-4.106,5.549-5.052,1.773.946,4.843,2.945,5.549,5.052.659,1.971,2.261,3.292,3.674,4.459,2.209,1.823,2.778,2.559,2.3,3.923-1.614,4.594-3.009,8.562.113,14.318h0c.762,1.4.587,3.439-.469,5.44-1.709,3.24-5.153,5.578-9.416,6.478V46.75a1.75,1.75,0,0,0-3.5,0V68.164c-4.262-.9-7.707-3.238-9.416-6.478-1.055-2-1.231-4.036-.469-5.441C70.472,50.49,69.077,46.521,67.463,41.927ZM84.728,89.25a10.661,10.661,0,0,0-3.993-2.55V71.726a20.732,20.732,0,0,0,3.993-1.11ZM77.235,71.726V86.084h-.016a10.47,10.47,0,0,0-3.977.788V70.615A20.733,20.733,0,0,0,77.235,71.726ZM64,63.752l1.65,1.068a15.529,15.529,0,0,0,4.092,3.962V89.2a10.521,10.521,0,0,0-2.921,5.675,7.839,7.839,0,0,0-1.073.074A8.834,8.834,0,0,0,60.3,92.973a10.515,10.515,0,0,0-2.039-3.368V67.471Zm-14.985,0,5.743,3.719V87.039a10.451,10.451,0,0,0-11.486,1.844V67.471ZM28.287,67.471l5.743-3.719,5.742,3.719V94.884a7.929,7.929,0,0,0-7.165,4.829h-4.32Zm8.456,32.242a4.469,4.469,0,0,1,4.41-1.165A1.75,1.75,0,0,0,43.375,96.8c0-.021-.01-.151-.012-.172A7.044,7.044,0,0,1,57.3,95.178a1.747,1.747,0,0,0,1.989,1.37,5.526,5.526,0,0,1,.863-.076,5.38,5.38,0,0,1,3.838,1.6,1.743,1.743,0,0,0,1.673.461,4.054,4.054,0,0,1,2.3.015,1.749,1.749,0,0,0,2.222-1.728l-.011-.193a7.043,7.043,0,0,1,13.935-1.449,1.753,1.753,0,0,0,1.99,1.371,5.324,5.324,0,0,1,.864-.077,5.442,5.442,0,0,1,4.967,3.241Zm62.97,0H95.619a8.954,8.954,0,0,0-7.391-6.643V68.783a15.559,15.559,0,0,0,4.094-3.964l1.648-1.067,5.743,3.719Z"/>
    <path d="M45.731,47.083A11.148,11.148,0,1,0,34.583,35.936,11.16,11.16,0,0,0,45.731,47.083Zm0-18.8a7.648,7.648,0,1,1-7.648,7.649A7.657,7.657,0,0,1,45.731,28.287Z"/>
  </g>
</svg>
