<svg xmlns="http://www.w3.org/2000/svg" width="128" height="128" viewBox="0 0 128 128">
  <title>GARDENER</title>
  <g>
    <path d="M103.134,100.943l-6.578-21.18A10.985,10.985,0,0,0,86.017,72H78.956A17.894,17.894,0,0,0,82,62V51.5H92.25A1.75,1.75,0,0,0,94,49.75V42.5a1.75,1.75,0,0,0-1.75-1.75H81.7l-1.864-9.917a7.42,7.42,0,0,0-7.288-6.045H55.45a7.42,7.42,0,0,0-7.288,6.045L46.3,40.75H35.75A1.75,1.75,0,0,0,34,42.5v7.25a1.75,1.75,0,0,0,1.75,1.75H46V62a17.894,17.894,0,0,0,3.044,10H41.983a10.985,10.985,0,0,0-10.539,7.763l-6.578,21.18a1.751,1.751,0,0,0,1.152,2.191,1.732,1.732,0,0,0,.52.079,1.75,1.75,0,0,0,1.67-1.232L34.786,80.8a7.486,7.486,0,0,1,6.831-5.272v25.933a1.75,1.75,0,0,0,3.5,0V88.125H82.883v13.337a1.75,1.75,0,0,0,3.5,0V75.529A7.486,7.486,0,0,1,93.214,80.8l6.578,21.18a1.75,1.75,0,1,0,3.342-1.038ZM45.117,75.5h2.391v9.125H45.117ZM64,68.766a10.7,10.7,0,0,0,8.65,4.843,14.386,14.386,0,0,1-17.3,0A10.7,10.7,0,0,0,64,68.766Zm8.958,1.359a7.222,7.222,0,0,1-6.993-5.458h2.051a7.221,7.221,0,0,1,6.994,5.458Zm-17.916,0H52.99a7.221,7.221,0,0,1,6.994-5.458h2.051A7.222,7.222,0,0,1,55.042,70.125ZM51.008,75.5h1.126a17.895,17.895,0,0,0,23.732,0h1.126v9.125H51.008ZM51.6,31.48a3.917,3.917,0,0,1,3.848-3.192h17.1A3.917,3.917,0,0,1,76.4,31.479l1.743,9.271H49.859ZM37.5,44.25h53V48h-53Zm41,7.25V62a14.413,14.413,0,0,1-.93,5.064,10.713,10.713,0,0,0-9.554-5.9H59.984a10.713,10.713,0,0,0-9.554,5.9A14.413,14.413,0,0,1,49.5,62V51.5Zm1.992,33.125V75.5h2.391v9.125Z"/>
    <path d="M57.083,57.75h2.834a1.75,1.75,0,0,0,0-3.5H57.083a1.75,1.75,0,0,0,0,3.5Z"/>
    <path d="M68.083,57.75h2.834a1.75,1.75,0,0,0,0-3.5H68.083a1.75,1.75,0,0,0,0,3.5Z"/>
  </g>
</svg>
