<svg xmlns="http://www.w3.org/2000/svg" width="128" height="128" viewBox="0 0 128 128">
  <title>GLOVES</title>
  <path d="M101.318,69.623,83.907,57.674a6.9,6.9,0,0,0-5.07-1.118h0a3.458,3.458,0,0,1-3.949-2.846,18.707,18.707,0,0,0-5.163-9.719L52.343,26.609a5.164,5.164,0,0,0-8.379,1.285l-.351-.351a5.265,5.265,0,0,0-7.243-.326,5.15,5.15,0,0,0-1.393,2.04,5.139,5.139,0,0,0-6.122,7.668,5.191,5.191,0,0,0-1.653,1.23,5.269,5.269,0,0,0,.327,7.244l6.925,6.925a5.182,5.182,0,0,0-1.561,1.186,5.266,5.266,0,0,0,.325,7.241l9.873,9.874a18.7,18.7,0,0,0,9.719,5.162,3.464,3.464,0,0,1,2.846,3.95,6.889,6.889,0,0,0,1.118,5.071l11.949,17.41a1.75,1.75,0,0,0,1.282.753c.054,0,.107.007.161.007a1.75,1.75,0,0,0,1.237-.513L101.565,72.3a1.75,1.75,0,0,0-.247-2.68ZM70.417,98.5,59.66,82.827a3.408,3.408,0,0,1-.553-2.508,6.943,6.943,0,0,0-5.635-7.969,15.216,15.216,0,0,1-7.906-4.2l-9.872-9.872a1.8,1.8,0,0,1-.2-2.426,1.654,1.654,0,0,1,1.2-.555h.046a1.653,1.653,0,0,1,1.178.489l5.852,5.851a1.749,1.749,0,1,0,2.474-2.474L40.389,53.31,30,42.924a1.8,1.8,0,0,1-.2-2.426,1.656,1.656,0,0,1,1.2-.555,1.629,1.629,0,0,1,1.219.484l0,0h0l0,0,8.748,8.748a1.749,1.749,0,1,0,2.474-2.474L34.7,37.958l0,0-2.738-2.737a1.667,1.667,0,0,1,.066-2.421,1.8,1.8,0,0,1,2.427.2l1.716,1.715,0,0,9.634,9.634a1.75,1.75,0,0,0,2.474-2.475l-9.636-9.637a1.667,1.667,0,0,1,.066-2.421,1.8,1.8,0,0,1,2.427.2l3.809,3.809,8.939,8.939a1.75,1.75,0,0,0,2.475-2.475l-8.939-8.938a1.67,1.67,0,0,1,.269-2.579,1.758,1.758,0,0,1,2.178.31L67.25,46.466a15.216,15.216,0,0,1,4.2,7.906,6.939,6.939,0,0,0,7.969,5.635,3.411,3.411,0,0,1,2.508.553L97.6,71.317Z"/>
</svg>
