<svg xmlns="http://www.w3.org/2000/svg" width="128" height="128" viewBox="0 0 128 128">
  <title>GOLDEN POTHOS</title>
  <path d="M68.849,61.024A36.162,36.162,0,0,1,73.215,50.76a5.14,5.14,0,0,0,.745,1.067,4.147,4.147,0,0,0,3.133,1.322,5.444,5.444,0,0,0,1.152-.126c2.733-.587,5.183-3.057,6.243-6.293.595-1.818,1.035-3.766,1.461-5.65.527-2.335,1.183-5.24,1.865-5.922a1.75,1.75,0,0,0-2.475-2.475c-.682.682-3.587,1.338-5.922,1.865-1.884.426-3.832.866-5.65,1.461a10.928,10.928,0,0,0-2.363,1.1,16.2,16.2,0,0,0-8.126-5.721c-3.1-1.016-6.458-1.774-9.7-2.507-4.653-1.051-9.465-2.137-10.914-3.586a1.75,1.75,0,1,0-2.475,2.475c1.449,1.449,2.536,6.262,3.587,10.915.733,3.245,1.49,6.6,2.506,9.7,1.7,5.192,5.582,9.146,9.89,10.072a8.16,8.16,0,0,0,1.721.189,5.957,5.957,0,0,0,4.5-1.874,7.845,7.845,0,0,0,1.659-2.858c1.353,2.987,1.927,6.251.594,9.328h-22.7A1.751,1.751,0,0,0,40.2,65V75.907a1.75,1.75,0,0,0,1.75,1.75h1.214v16.68a8.886,8.886,0,0,0,8.876,8.875H75.962a8.886,8.886,0,0,0,8.876-8.875V77.657h1.214a1.75,1.75,0,0,0,1.75-1.75V65a1.751,1.751,0,0,0-1.75-1.75H68.362a12.6,12.6,0,0,0,.46-2.164C68.828,61.064,68.843,61.047,68.849,61.024ZM81.338,94.337a5.382,5.382,0,0,1-5.376,5.375H52.038a5.382,5.382,0,0,1-5.376-5.375V77.657H81.338ZM84.3,74.157H43.7V66.75H84.3ZM65.733,49.632A8.918,8.918,0,0,0,70.617,48.3a36.552,36.552,0,0,0-2.889,5.317A25.245,25.245,0,0,0,65.733,49.632Zm9.122-10.3c1.662-.543,3.528-.965,5.333-1.373,1.106-.249,2.138-.483,3.076-.729-.246.938-.48,1.97-.729,3.076-.408,1.8-.829,3.671-1.373,5.333a5.648,5.648,0,0,1-3.653,3.96c-.165.036-.723.13-.964-.134h0a3.033,3.033,0,0,1-.374-2.63,17.828,17.828,0,0,1,2.644-2.469,1.75,1.75,0,0,0-1.95-2.907,19.993,19.993,0,0,0-3.15,2.854,3.051,3.051,0,0,1-2.686-.363c-.264-.241-.169-.8-.133-.964A5.648,5.648,0,0,1,74.855,39.335ZM59.806,54.42a3.059,3.059,0,0,1-2.9.623c-2.551-.548-5.8-3.154-7.3-7.739-.964-2.946-1.7-6.219-2.418-9.385-.625-2.769-1.208-5.352-1.9-7.518,2.165.691,4.748,1.274,7.516,1.9,3.166.716,6.44,1.455,9.385,2.419A12.533,12.533,0,0,1,68.8,39.464a7.161,7.161,0,0,0-1.323,2.788A4.6,4.6,0,0,0,68,45.729a8.115,8.115,0,0,1-5.075-.033,41.758,41.758,0,0,0-5.2-5.325,1.75,1.75,0,1,0-2.228,2.7,39.859,39.859,0,0,1,5.245,5.516C61.053,49.849,61.471,52.6,59.806,54.42Z"/>
</svg>
