<svg xmlns="http://www.w3.org/2000/svg" width="128" height="128" viewBox="0 0 128 128">
  <title>GUZMANIA</title>
  <path d="M94.244,43.994a1.749,1.749,0,0,0-1.7-1.327,44.987,44.987,0,0,0-7.482.6A36.3,36.3,0,0,1,91.614,37.3a1.75,1.75,0,0,0-.959-3.214A30.449,30.449,0,0,0,75.2,37.9a26.971,26.971,0,0,1,3.317-3.911A1.75,1.75,0,0,0,76.9,31.005a22.991,22.991,0,0,0-7.816,3.619,32.31,32.31,0,0,0-3.315-8.979,1.749,1.749,0,0,0-3.01,0A32.335,32.335,0,0,0,59.367,35a22.837,22.837,0,0,0-8.269-4,1.75,1.75,0,0,0-1.62,2.986A27.1,27.1,0,0,1,52.8,37.909a30.443,30.443,0,0,0-15.454-3.822,1.75,1.75,0,0,0-.959,3.214,35.951,35.951,0,0,1,6.546,5.962,45.516,45.516,0,0,0-7.479-.6,1.75,1.75,0,0,0-.82,3.3c.077.041,7.776,4.188,11.789,10.94A18.815,18.815,0,0,0,52.83,63.25H41.948A1.749,1.749,0,0,0,40.2,65V75.907a1.749,1.749,0,0,0,1.75,1.75h1.214v16.68a8.886,8.886,0,0,0,8.876,8.876H75.962a8.886,8.886,0,0,0,8.876-8.876V77.657h1.214a1.749,1.749,0,0,0,1.75-1.75V65a1.749,1.749,0,0,0-1.75-1.75H75.128a18.8,18.8,0,0,0,6.45-6.347C85.591,50.151,93.29,46,93.367,45.963A1.752,1.752,0,0,0,94.244,43.994Zm-14.588.6A28.756,28.756,0,0,0,65.98,53.981c2.4-5.758,7.771-13.941,19.231-15.941A39.026,39.026,0,0,0,79.656,44.6Zm-11.15-1.245A31.7,31.7,0,0,0,64,49.934q-.112-.216-.23-.434A19.669,19.669,0,0,1,71.4,37.292,28.091,28.091,0,0,0,68.506,43.353Zm-4.24-12.672a29.527,29.527,0,0,1,1.744,6.694,21.418,21.418,0,0,0-2.024,2.579,21.555,21.555,0,0,0-1.533-2.01A29.125,29.125,0,0,1,64.266,30.681ZM62.038,43.5c-.3.684-.558,1.357-.784,2.015-.541-.73-1.125-1.457-1.763-2.169a28.078,28.078,0,0,0-2.911-6.091A17.676,17.676,0,0,1,62.038,43.5ZM42.789,38.04c11.42,1.993,16.774,10.118,19.156,15.749a28.712,28.712,0,0,0-13.616-9.215A39.124,39.124,0,0,0,42.789,38.04Zm6.643,17.076a32.7,32.7,0,0,0-7.613-8.487c12.177,1.86,17.8,8.926,20.266,13.762-.407.92-.707,1.731-.929,2.4C56.02,61.739,51.7,58.939,49.432,55.116ZM81.338,94.337a5.383,5.383,0,0,1-5.376,5.376H52.038a5.383,5.383,0,0,1-5.376-5.376V77.657H81.338ZM84.3,66.75v7.407H43.7V66.75ZM78.568,55.116c-2.6,4.375-7.889,7.379-13.871,8.011.19-.534.433-1.147.734-1.812a1.741,1.741,0,0,0,.247-.516c2.363-4.913,7.934-12.288,20.513-14.179A32.737,32.737,0,0,0,78.568,55.116Z"/>
</svg>
