<svg xmlns="http://www.w3.org/2000/svg" width="128" height="128" viewBox="0 0 128 128" fill="#FFFFFF">
  <title>INDOOR PLANTS</title>
  <path d="M102.42,49.535,64.957,25.072a1.745,1.745,0,0,0-1.914,0L47,35.548V33.823a1.744,1.744,0,0,0,1.208-1.656v-5.63a1.749,1.749,0,0,0-1.75-1.75H33.542a1.749,1.749,0,0,0-1.75,1.75v5.63A1.744,1.744,0,0,0,33,33.823V44.69l-7.419,4.845a1.75,1.75,0,0,0,.957,3.215h4.379v48.713a1.749,1.749,0,0,0,1.75,1.75H95.333a1.749,1.749,0,0,0,1.75-1.75V52.75h4.38a1.75,1.75,0,0,0,.957-3.215ZM35.292,28.287h9.416v2.13H35.292Zm1.208,5.63h7v3.917l-7,4.571ZM64,28.627,95.582,49.25H32.418ZM56.953,99.713A2.452,2.452,0,0,1,54.5,97.265V88.156H73.5v9.109a2.451,2.451,0,0,1-2.447,2.448ZM75.242,81.73v2.926H52.758V81.73ZM93.583,99.713H76.462A5.913,5.913,0,0,0,77,97.265V88.156a1.749,1.749,0,0,0,1.747-1.75V79.98a1.75,1.75,0,0,0-1.75-1.75H65.75V72.55a6.558,6.558,0,0,0,6.239-1.735c2.162-2.162,3.026-8.693,3.239-10.643a1.754,1.754,0,0,0-.5-1.428,1.736,1.736,0,0,0-1.428-.5c-1.636.179-6.489.819-9.289,2.3-2.974-1.563-8.625-2.222-9.307-2.3a1.75,1.75,0,0,0-1.93,1.93c.213,1.95,1.077,8.481,3.239,10.643a6.4,6.4,0,0,0,6.239,1.728V78.23H51.008a1.751,1.751,0,0,0-1.75,1.75v6.426A1.75,1.75,0,0,0,51,88.156v9.109a5.9,5.9,0,0,0,.534,2.448H34.417V52.75H93.583ZM65.129,68.341a3.1,3.1,0,0,1,0-4.386c.687-.686,3.478-1.446,6.308-1.921-.474,2.828-1.233,5.618-1.921,6.307A3.105,3.105,0,0,1,65.129,68.341Zm-3.685.805a3.084,3.084,0,0,1-2.958-.805c-.687-.687-1.445-3.476-1.921-6.3a29.537,29.537,0,0,1,4.851,1.173A6.625,6.625,0,0,0,61.444,69.146Z"/>
</svg>
