<svg xmlns="http://www.w3.org/2000/svg" width="128" height="128" viewBox="0 0 128 128">
  <title>JANET CRAIG</title>
  <path d="M92.993,45.94a1.749,1.749,0,0,0-1.676-1.249,31.2,31.2,0,0,0-15.153,3.584,42.038,42.038,0,0,1,8.312-11.534,1.75,1.75,0,0,0-1.62-2.987,31.982,31.982,0,0,0-12.02,5.864,45.984,45.984,0,0,0-4.947-13.973,1.751,1.751,0,0,0-3.011,0A46.037,46.037,0,0,0,57.83,40.191a31.989,31.989,0,0,0-12.686-6.437,1.75,1.75,0,0,0-1.62,2.987A42.015,42.015,0,0,1,51.81,48.219a31.465,31.465,0,0,0-15.128-3.528,1.75,1.75,0,0,0-.959,3.214A36.233,36.233,0,0,1,47.042,60.926a20.529,20.529,0,0,0,11.583,10.4v7.256h-12.4a1.75,1.75,0,0,0-1.75,1.75v6.321A1.748,1.748,0,0,0,46.189,88.4v8.932a5.886,5.886,0,0,0,5.879,5.879H75.932a5.886,5.886,0,0,0,5.879-5.879V88.4a1.748,1.748,0,0,0,1.717-1.747V80.333a1.75,1.75,0,0,0-1.75-1.75h-12.4V71.338A20.615,20.615,0,0,0,80.958,60.926,36.436,36.436,0,0,1,92.278,47.9,1.75,1.75,0,0,0,92.993,45.94ZM77.408,39.514a41.254,41.254,0,0,0-6.414,12.391,31.642,31.642,0,0,0-6.965,9.131c-.314-.613-.655-1.238-1.029-1.869C64.515,52.357,68.279,44.163,77.408,39.514ZM64.385,30.482a43.809,43.809,0,0,1,3.338,12A30.515,30.515,0,0,0,64,47.355a30.473,30.473,0,0,0-3.045-4.115A43.661,43.661,0,0,1,64.385,30.482ZM50.6,39.524a26.158,26.158,0,0,1,11.449,11.5,36.657,36.657,0,0,0-1.665,4.37,29.045,29.045,0,0,0-3.41-3.583A41.332,41.332,0,0,0,50.6,39.524Zm-.4,19.888a37.434,37.434,0,0,0-8.065-10.779C54.291,50.692,59.791,59.5,62.145,65.34c-.453,1.24-.776,2.323-1,3.182a1.763,1.763,0,0,0-.332-.135A17.051,17.051,0,0,1,50.2,59.412Zm25.735,40.3H52.068a2.381,2.381,0,0,1-2.379-2.379V88.4H78.311v8.929A2.382,2.382,0,0,1,75.932,99.712Zm4.1-14.808H47.972V82.083H80.028ZM65.875,72.5v6.086h-3.75v-6.05a1.673,1.673,0,0,0,.292.032c.538,0,1.073-.026,1.605-.068ZM77.8,59.412A17.148,17.148,0,0,1,64.622,68.92c1.372-5.152,6.233-17.8,21.256-20.3A37.422,37.422,0,0,0,77.8,59.412Z"/>
</svg>
