<svg xmlns="http://www.w3.org/2000/svg" width="128" height="128" viewBox="0 0 128 128">
  <title>LAWN MOWER</title>
  <g>
    <path d="M95.468,84.392V76.25a1.749,1.749,0,0,0-1.75-1.75H89V70.034a1.749,1.749,0,0,0-1.75-1.75H83V66.408h.273a1.749,1.749,0,0,0,1.75-1.75V55.589a1.749,1.749,0,0,0-1.75-1.75H60.727a1.749,1.749,0,0,0-1.75,1.75v9.069a1.749,1.749,0,0,0,1.75,1.75H61v1.876H41.25a1.749,1.749,0,0,0-1.75,1.75V74.5h-2V39.436a13.29,13.29,0,0,0-5.091-10.5l-4.788-3.775a1.75,1.75,0,0,0-2.168,2.748l4.788,3.776A9.811,9.811,0,0,1,34,39.436V91.611a1.749,1.749,0,0,0,1.75,1.75h3.9a11.585,11.585,0,0,0,22.909,0H84.242c-.005.12-.018.236-.018.357a9.495,9.495,0,1,0,11.244-9.326ZM62.477,57.339H81.523v5.569H62.477ZM64.5,66.408h15v1.876h-15ZM43,71.784H85.5V74.5H43Zm8.1,27.929a8.1,8.1,0,1,1,8.1-8.1A8.112,8.112,0,0,1,51.1,99.713Zm11.454-9.852a11.585,11.585,0,0,0-22.909,0H37.5V78H91.968v6.392a9.515,9.515,0,0,0-6.918,5.469Zm31.162,9.852a5.995,5.995,0,0,1-.007-11.989h.013a5.995,5.995,0,0,1-.006,11.989Z"/>
    <path d="M51.1,88.2a3.417,3.417,0,1,0,3.417,3.416A3.416,3.416,0,0,0,51.1,88.2Z"/>
    <path d="M93.718,91.485a2.233,2.233,0,1,0,2.233,2.233A2.233,2.233,0,0,0,93.718,91.485Z"/>
  </g>
</svg>
