<svg xmlns="http://www.w3.org/2000/svg" width="128" height="128" viewBox="0 0 128 128">
  <title>MONSTERA LEAF</title>
  <path d="M95.619,59.715a23.725,23.725,0,0,0-12.407-1.656,2.751,2.751,0,0,1-.741-5.451,29.217,29.217,0,0,1,10.577.5A1.749,1.749,0,0,0,95.087,50.8c-1.9-5.165-5.344-8.786-9.7-10.2-9.15-2.965-15.93,1.065-19.634,4.36V37.788a9.511,9.511,0,0,1,9.5-9.5,1.75,1.75,0,0,0,0-3.5,13.014,13.014,0,0,0-13,13v7.174c-3.7-3.3-10.49-7.323-19.634-4.361-4.359,1.412-7.8,5.033-9.7,10.2a1.749,1.749,0,0,0,2.039,2.308,29.17,29.17,0,0,1,10.577-.5,2.751,2.751,0,1,1-.742,5.451,23.7,23.7,0,0,0-12.406,1.656A1.75,1.75,0,0,0,31.3,61.374a38.479,38.479,0,0,0,1.58,9.886,1.751,1.751,0,0,0,2.432,1.088,34.434,34.434,0,0,1,9.062-2.9,2.75,2.75,0,0,1,.913,5.424,29.249,29.249,0,0,0-8.038,2.642,1.752,1.752,0,0,0-.765,2.407,47.218,47.218,0,0,0,4.95,7.331,1.753,1.753,0,0,0,2.249.393A25.054,25.054,0,0,1,47.7,85.692a2.75,2.75,0,1,1,1.932,5.15c-.231.086-.454.185-.678.285l-.2.09a1.749,1.749,0,0,0-.413,2.952,58.851,58.851,0,0,0,15,8.91,1.754,1.754,0,0,0,1.34,0,58.851,58.851,0,0,0,15-8.91,1.749,1.749,0,0,0-.413-2.952l-.2-.09c-.224-.1-.447-.2-.678-.285h0A2.75,2.75,0,1,1,80.3,85.692a25.022,25.022,0,0,1,4.014,1.951,1.753,1.753,0,0,0,2.249-.393,47.218,47.218,0,0,0,4.95-7.331,1.752,1.752,0,0,0-.765-2.407,29.249,29.249,0,0,0-8.038-2.642,2.75,2.75,0,0,1,.914-5.424,34.439,34.439,0,0,1,9.061,2.9,1.751,1.751,0,0,0,2.432-1.088,38.479,38.479,0,0,0,1.58-9.886A1.75,1.75,0,0,0,95.619,59.715Zm-3.344,8.619A37.334,37.334,0,0,0,84.211,66a6.25,6.25,0,1,0-2.079,12.326A24.978,24.978,0,0,1,87.5,79.882a43.722,43.722,0,0,1-2.731,4,27.455,27.455,0,0,0-3.241-1.467,6.25,6.25,0,0,0-6.166,10.677A56.112,56.112,0,0,1,64,99.563a56.112,56.112,0,0,1-11.365-6.471,6.25,6.25,0,0,0-6.167-10.677,27.516,27.516,0,0,0-3.24,1.467,43.722,43.722,0,0,1-2.731-4,24.978,24.978,0,0,1,5.371-1.561,6.249,6.249,0,0,0,2.58-11.257A6.2,6.2,0,0,0,43.79,66a37.342,37.342,0,0,0-8.065,2.339,34.745,34.745,0,0,1-.874-5.817,20.116,20.116,0,0,1,9.464-.991A6.25,6.25,0,1,0,46,49.141a32.588,32.588,0,0,0-8.418-.052,11.29,11.29,0,0,1,6.112-5.158C54.19,40.529,60.8,48.1,62.25,50V64a1.75,1.75,0,0,0,3.5,0V50c1.447-1.856,8.144-9.444,18.556-6.072a11.29,11.29,0,0,1,6.112,5.158A32.589,32.589,0,0,0,82,49.141a6.249,6.249,0,1,0,1.684,12.385,20.115,20.115,0,0,1,9.465.991A34.745,34.745,0,0,1,92.275,68.334Z"/>
</svg>
