<svg xmlns="http://www.w3.org/2000/svg" width="128" height="128" viewBox="0 0 128 128">
  <title>MYRTUS</title>
  <path d="M86.052,63.25H65.75v-1.3a7.841,7.841,0,0,0,4.627-3.1,7.793,7.793,0,0,0,9-9,7.807,7.807,0,0,0,0-12.755,7.792,7.792,0,0,0-9-9,7.806,7.806,0,0,0-12.754,0,7.792,7.792,0,0,0-9,9,7.807,7.807,0,0,0,0,12.755,7.793,7.793,0,0,0,9,9,7.841,7.841,0,0,0,4.627,3.1v1.3h-20.3A1.75,1.75,0,0,0,40.2,65V75.907a1.75,1.75,0,0,0,1.75,1.75h1.214v16.68a8.886,8.886,0,0,0,8.876,8.876H75.962a8.886,8.886,0,0,0,8.876-8.876V77.657h1.214a1.75,1.75,0,0,0,1.75-1.75V65A1.75,1.75,0,0,0,86.052,63.25ZM60.063,56.1a1.747,1.747,0,0,0-2.216-.92,4.3,4.3,0,0,1-5.556-5.556,1.752,1.752,0,0,0-.92-2.217,4.311,4.311,0,0,1,0-7.874,1.751,1.751,0,0,0,.921-2.217,4.3,4.3,0,0,1,5.556-5.556,1.752,1.752,0,0,0,2.216-.92,4.312,4.312,0,0,1,7.875,0,1.75,1.75,0,0,0,2.215.92,4.3,4.3,0,0,1,5.556,5.556,1.751,1.751,0,0,0,.921,2.217,4.311,4.311,0,0,1,0,7.874,1.752,1.752,0,0,0-.92,2.217,4.3,4.3,0,0,1-5.556,5.556,1.75,1.75,0,0,0-2.216.92,4.323,4.323,0,0,1-2.187,2.176V38a1.75,1.75,0,0,0-3.5,0v3.5l-2.265-1.277a1.75,1.75,0,0,0-1.72,3.048l3.985,2.248V58.277A4.323,4.323,0,0,1,60.063,56.1ZM43.7,66.75H84.3v7.407H43.7Zm37.64,27.587a5.383,5.383,0,0,1-5.376,5.376H52.038a5.383,5.383,0,0,1-5.376-5.376V77.657H81.338Z"/>
</svg>
