<svg xmlns="http://www.w3.org/2000/svg" width="128" height="128" viewBox="0 0 128 128">
  <title>p</title>
  <path d="M84.652,50.555a37.369,37.369,0,0,0-3.285-4.889c1.152-3.9,3.278-13.021-1.055-15.769-3.721-2.359-7.426-.707-9.511.683-1.742-2.556-5.512-6.751-10.981-5.6C55.7,25.844,49.241,32.516,44.788,40.5c-2.6,4.657-6.557,13.582-3.875,21.031a1.749,1.749,0,0,0,1.053,1.054,16.128,16.128,0,0,0,5.489.909,27.146,27.146,0,0,0,9.308-1.879,49.335,49.335,0,0,0,3.782,6.471H44.871a1.751,1.751,0,0,0-1.75,1.75V79.3a1.751,1.751,0,0,0,1.75,1.75h.821V95.281a7.94,7.94,0,0,0,7.932,7.931H74.376a7.941,7.941,0,0,0,7.932-7.931V81.045h.821a1.75,1.75,0,0,0,1.75-1.75V69.833a1.75,1.75,0,0,0-1.75-1.75H68.406A48.692,48.692,0,0,0,71.921,64c2.529,1.36,6.5,3.078,10.472,3.078a11.429,11.429,0,0,0,3.891-.643,1.751,1.751,0,0,0,1.054-1.054C89.245,60.088,86.474,53.82,84.652,50.555Zm-6.215-17.7c.942.6,1.483,3.856.255,9.24.126-4.278-2.967-7.353-5.255-9.028A4.805,4.805,0,0,1,78.437,32.853ZM43.952,59.541C42.3,53.529,45.635,46.162,47.844,42.2c4.146-7.43,10.019-13.236,12.7-13.8,4.9-1.033,8.178,5.478,8.208,5.541a1.753,1.753,0,0,0,.8.8c.051.025,3.976,2,5.247,5.179a5.029,5.029,0,0,0-.791-.25c-3.574-.753-6.145,1.545-7.571,3.37a9.661,9.661,0,0,0-7.261-2.409A6.007,6.007,0,0,0,54.144,44.5c-1.42,3.389-.874,8.444,1.221,13.893C51.02,59.972,47.076,60.391,43.952,59.541Zm16.621-6.432a6.985,6.985,0,0,0,1.081,2.336c-1.034.591-2.056,1.12-3.065,1.6-1.81-4.765-2.191-8.865-1.217-11.189a2.521,2.521,0,0,1,2.177-1.739,6.131,6.131,0,0,1,4.4,1.416C62.125,46.956,59.819,49.53,60.573,53.109Zm3.373,5.054a34.812,34.812,0,0,0,4.959,4.018,43.463,43.463,0,0,1-4.657,5.084,46.188,46.188,0,0,1-4.265-7.012C61.453,59.561,62.8,58.837,63.946,58.163ZM78.808,95.281a4.437,4.437,0,0,1-4.432,4.431H53.624a4.436,4.436,0,0,1-4.432-4.431V81.045H78.808Zm2.571-17.736H46.621V71.583H81.379Zm2.9-14.163c-2.882.639-6.869-.313-11.123-2.686-5.2-2.9-8.841-6.795-9.159-8.308h0c-.615-2.919,3.452-4.981,3.488-5a1.75,1.75,0,0,0,.8-.8c.019-.038,1.815-3.55,4.4-3.55a2.873,2.873,0,0,1,.6.063c.938.2,2.791,1.673,4.756,4.005.013.017.029.033.043.05A33.129,33.129,0,0,1,81.6,52.26C83.968,56.513,84.921,60.5,84.28,63.382Z"/>
</svg>
