<svg xmlns="http://www.w3.org/2000/svg" width="128" height="128" viewBox="0 0 128 128">
  <title>PALM</title>
  <path d="M101.463,99.713H70.486L69.14,56.969a7.746,7.746,0,0,0,1.622-2.018L87.05,68.832a1.75,1.75,0,0,0,2.844-.955c1.39-6.3-.925-12.748-6.2-17.239a23.924,23.924,0,0,0-14.3-5.479L89.333,28.171a1.75,1.75,0,0,0-.857-3.06A24.542,24.542,0,0,0,68.841,30.3,19.223,19.223,0,0,0,64,36.477,19.223,19.223,0,0,0,59.159,30.3a24.537,24.537,0,0,0-19.635-5.187,1.75,1.75,0,0,0-.857,3.06L58.6,45.16a23.917,23.917,0,0,0-14.3,5.478c-5.272,4.491-7.587,10.936-6.2,17.239a1.75,1.75,0,0,0,2.844.955L57.23,54.957a7.7,7.7,0,0,0,1.63,2.034L57.514,99.713H26.537a1.75,1.75,0,0,0,0,3.5h74.926a1.75,1.75,0,0,0,0-3.5ZM86.784,64.007,68.746,48.634A20.461,20.461,0,0,1,81.428,53.3,14.52,14.52,0,0,1,86.784,64.007ZM71.11,32.962A20.466,20.466,0,0,1,83.792,28.3L65.754,43.668A14.524,14.524,0,0,1,71.11,32.962Zm-14.22,0a14.524,14.524,0,0,1,5.356,10.706L44.208,28.3A20.472,20.472,0,0,1,56.89,32.962ZM46.572,53.3a20.461,20.461,0,0,1,12.682-4.668L41.216,64.007A14.519,14.519,0,0,1,46.572,53.3ZM64,49.187l3.994,3.405a4.224,4.224,0,0,1-7.987,0Zm-1.694,9.56A7.77,7.77,0,0,0,64,58.938a7.665,7.665,0,0,0,1.694-.2l1.29,40.971H61.016Z"/>
</svg>
