<svg xmlns="http://www.w3.org/2000/svg" width="128" height="128" viewBox="0 0 128 128">
  <title>PLANT POT</title>
  <path d="M89.39,56.814H83.6A9.038,9.038,0,0,0,75.118,51.6a12.2,12.2,0,0,0-7.152-9.392l2.41-2.41a7.292,7.292,0,0,0,8.932-1.081c2.477-2.477,3.461-10.454,3.633-12.028a1.75,1.75,0,0,0-1.93-1.93c-1.573.172-9.551,1.156-12.029,3.633A7.285,7.285,0,0,0,67.9,37.324l-2.15,2.15V26.5a1.75,1.75,0,0,0-3.5,0v14.7a12.24,12.24,0,0,0-10.193,6.954,10.809,10.809,0,0,0-8.313,8.668H38.61a1.751,1.751,0,0,0-1.75,1.75V70.181a1.751,1.751,0,0,0,1.75,1.75H40.5l2.354,24.655a7.293,7.293,0,0,0,7.289,6.627H77.853a7.293,7.293,0,0,0,7.289-6.627L87.5,71.931H89.39a1.751,1.751,0,0,0,1.75-1.75V58.564A1.751,1.751,0,0,0,89.39,56.814ZM71.457,30.865c.873-.872,4.319-1.785,7.7-2.326-.54,3.383-1.453,6.828-2.327,7.7a3.8,3.8,0,0,1-5.376-5.376ZM53.51,51.443a1.748,1.748,0,0,0,1.426-1.125,8.672,8.672,0,0,1,16.8,3.06l-.01.2A1.751,1.751,0,0,0,73.953,55.3a5.491,5.491,0,0,1,5.468,1.51h-32.1A7.324,7.324,0,0,1,53.51,51.443ZM40.36,60.314H87.64v8.117H40.36Zm41.3,35.94a3.807,3.807,0,0,1-3.805,3.459H50.147a3.807,3.807,0,0,1-3.8-3.459L44.02,71.931H83.98Z"/>
</svg>
