<svg xmlns="http://www.w3.org/2000/svg" width="128" height="128" viewBox="0 0 128 128">
  <title>PLANT</title>
  <path d="M86.052,63.25H65.75V49.314L72.1,42.969a8.871,8.871,0,0,0,11.179-1.116c3.06-3.059,4.3-13.136,4.518-15.125a1.751,1.751,0,0,0-1.931-1.93c-1.988.218-12.066,1.457-15.125,4.517a8.879,8.879,0,0,0-1.114,11.177L65.75,44.365V26.538a1.75,1.75,0,1,0-3.5,0V53.1l-4.722-4.723A10.4,10.4,0,0,0,56.4,35.033c-3.7-3.7-16.669-5.214-18.135-5.375a1.752,1.752,0,0,0-1.931,1.93c.161,1.467,1.674,14.434,5.376,18.136a10.379,10.379,0,0,0,13.34,1.124l7.2,7.2v5.2h-20.3A1.751,1.751,0,0,0,40.2,65V75.907a1.75,1.75,0,0,0,1.75,1.75h1.214v16.68a8.886,8.886,0,0,0,8.876,8.875H75.962a8.886,8.886,0,0,0,8.876-8.875V77.657h1.214a1.75,1.75,0,0,0,1.75-1.75V65A1.751,1.751,0,0,0,86.052,63.25ZM73.21,31.79c1.364-1.364,6.557-2.583,10.812-3.222-.638,4.254-1.856,9.445-3.222,10.81a5.3,5.3,0,0,1-6.13,1.016l5.58-5.58a1.75,1.75,0,1,0-2.475-2.475L72.2,37.917A5.357,5.357,0,0,1,73.21,31.79ZM44.187,47.249C42.336,45.4,40.83,38.52,40.1,33.418c5.1.73,11.975,2.236,13.829,4.09A6.893,6.893,0,0,1,55,45.846l-7.141-7.141a1.75,1.75,0,1,0-2.475,2.474l7.142,7.142A6.9,6.9,0,0,1,44.187,47.249ZM43.7,66.75H84.3v7.407H43.7Zm37.64,27.587a5.382,5.382,0,0,1-5.376,5.375H52.038a5.382,5.382,0,0,1-5.376-5.375V77.657H81.338Z"/>
</svg>
