<svg xmlns="http://www.w3.org/2000/svg" width="128" height="128" viewBox="0 0 128 128">
  <title>PLANT TREE</title>
  <path d="M101.463,99.713H90.683v-9.2c5.058-.929,9.215-3.718,11.3-7.665a8.623,8.623,0,0,0,.407-8.066c-2.118-3.907-1.279-6.3.113-10.259,1.271-3.615-1.257-5.7-3.1-7.223a6.893,6.893,0,0,1-2.285-2.523c-1.327-3.958-6.826-6.583-7.448-6.869a1.752,1.752,0,0,0-1.462,0c-.591.271-5.559,2.648-7.2,6.268a39.732,39.732,0,0,1,1.836-6.232c1.651-4.7-1.614-7.4-4.238-9.563-1.564-1.291-3.041-2.51-3.535-3.986-1.81-5.4-9.463-9.051-10.33-9.45a1.752,1.752,0,0,0-1.462,0c-.867.4-8.52,4.049-10.33,9.45-.494,1.476-1.971,2.7-3.535,3.986-2.624,2.165-5.889,4.86-4.238,9.563A39.732,39.732,0,0,1,47,54.178c-1.645-3.62-6.613-6-7.2-6.268a1.752,1.752,0,0,0-1.462,0c-.622.286-6.121,2.911-7.448,6.87A6.9,6.9,0,0,1,28.6,57.3c-1.846,1.522-4.374,3.608-3.1,7.223,1.392,3.961,2.231,6.352.113,10.259a8.623,8.623,0,0,0,.407,8.066c2.081,3.947,6.239,6.736,11.3,7.665v9.2H26.537a1.75,1.75,0,0,0,0,3.5h74.926a1.75,1.75,0,0,0,0-3.5ZM65.75,85.033A25.2,25.2,0,0,0,75.289,81.5c1.492,4.029,5.6,7.878,11.894,9.019v9.19H65.75ZM84.071,55.892c.606-1.806,3.3-3.581,4.864-4.431,1.56.847,4.251,2.615,4.859,4.431A9.521,9.521,0,0,0,97.169,60c1.959,1.616,2.432,2.217,2.028,3.364-1.473,4.194-2.746,7.816.114,13.087a5.2,5.2,0,0,1-.426,4.765,11.981,11.981,0,0,1-8.2,5.728V63.518a1.75,1.75,0,0,0-3.5,0V86.939c-5.138-1.16-8.308-4.576-8.916-7.707a18.482,18.482,0,0,0,3.864-4.968c2.008-3.806,2.228-7.88.59-10.9A16.682,16.682,0,0,1,81.19,59.59,8.537,8.537,0,0,0,84.071,55.892ZM51.632,41.082c1.787-1.476,3.813-3.147,4.626-5.573C57.267,32.5,61.67,29.7,64,28.487c2.331,1.206,6.728,4,7.741,7.022.813,2.426,2.839,4.1,4.626,5.573,2.847,2.349,3.93,3.522,3.163,5.7-2.149,6.115-3.846,10.945.114,18.245,1.079,1.99.85,4.831-.61,7.6-2.389,4.528-7.277,7.745-13.285,8.845V65.109l5.084-2.754a1.75,1.75,0,1,0-1.668-3.078L65.75,61.128V46.75a1.75,1.75,0,0,0-3.5,0v6.811l-3.416-1.85a1.75,1.75,0,0,0-1.668,3.078l5.084,2.754V68.694l-3.416-1.85a1.75,1.75,0,1,0-1.668,3.078l5.084,2.754v8.8c-6.008-1.1-10.9-4.317-13.285-8.845-1.46-2.769-1.689-5.61-.61-7.6,3.96-7.3,2.263-12.13.114-18.245C47.7,44.6,48.785,43.431,51.632,41.082ZM29.115,81.217a5.2,5.2,0,0,1-.426-4.765c2.86-5.271,1.587-8.893.114-13.087-.4-1.147.069-1.748,2.028-3.364a9.524,9.524,0,0,0,3.375-4.108c.606-1.807,3.3-3.582,4.863-4.432,1.561.847,4.251,2.615,4.86,4.431a8.531,8.531,0,0,0,2.881,3.7,16.729,16.729,0,0,1-1.531,3.773c-1.638,3.021-1.418,7.095.59,10.9a18.47,18.47,0,0,0,3.863,4.966c-.576,2.845-3.466,6.5-8.915,7.712V63.518a1.75,1.75,0,0,0-3.5,0V86.946A11.985,11.985,0,0,1,29.115,81.217Zm11.7,9.305c6.3-1.142,10.41-5,11.9-9.014a25.2,25.2,0,0,0,9.532,3.525v14.68H40.817Z"/>
</svg>
