<svg xmlns="http://www.w3.org/2000/svg" width="128" height="128" viewBox="0 0 128 128">
  <title>POT</title>
  <path d="M96.491,44.817H88.766A10.979,10.979,0,0,0,77.8,38.168a15.089,15.089,0,0,0-28.742-4.505A13.306,13.306,0,0,0,38.492,44.817H31.509a1.75,1.75,0,0,0-1.75,1.75V61.432a1.75,1.75,0,0,0,1.75,1.75h2.868l3.056,31.994a8.843,8.843,0,0,0,8.839,8.036H81.728a8.843,8.843,0,0,0,8.839-8.035l3.056-32h2.868a1.75,1.75,0,0,0,1.75-1.75V46.567A1.75,1.75,0,0,0,96.491,44.817ZM50.516,36.97a1.751,1.751,0,0,0,1.426-1.126,11.587,11.587,0,0,1,22.45,4.116c0,.078-.01.156-.012.234A1.751,1.751,0,0,0,76.6,41.923a7.487,7.487,0,0,1,8.182,2.894H42.04A9.833,9.833,0,0,1,50.516,36.97ZM87.083,94.844a5.357,5.357,0,0,1-5.355,4.868H46.272a5.357,5.357,0,0,1-5.355-4.868L37.893,63.182H90.107Zm7.658-35.162H33.259V48.317H94.741Z"/>
</svg>
