<svg xmlns="http://www.w3.org/2000/svg" width="128" height="128" viewBox="0 0 128 128" fill="#FFFFFF">
  <title>POTS</title>
  <path d="M89.452,58.59a8.625,8.625,0,0,0-.35-5.363L83.087,38.345l1.031-.417a1.751,1.751,0,0,0,.967-2.279l-3.948-9.768a1.75,1.75,0,0,0-2.279-.966L39.362,40.88a1.75,1.75,0,0,0-.967,2.278l3.948,9.768a1.75,1.75,0,0,0,2.279.966l1.031-.417L47.684,58.5H39.076a1.749,1.749,0,0,0-1.75,1.75V72.578a1.749,1.749,0,0,0,1.75,1.75h1.6v19.08a9.816,9.816,0,0,0,9.8,9.8H77.521a9.816,9.816,0,0,0,9.8-9.8V74.328h1.6a1.749,1.749,0,0,0,1.75-1.75V60.25A1.742,1.742,0,0,0,89.452,58.59ZM42.3,43.469,78.547,28.815l2.637,6.524-1.031.417h0L44.933,49.991Zm6.6,8.694L79.841,39.656l6.015,14.883A5.123,5.123,0,0,1,85.8,58.5H51.459ZM40.826,62h9.441l.013,0,.021,0H86.829l.013,0,.016,0h.316v8.828H40.826Zm43,31.408a6.311,6.311,0,0,1-6.3,6.3H50.479a6.311,6.311,0,0,1-6.3-6.3V74.328H83.824Z"/>
</svg>
