<svg xmlns="http://www.w3.org/2000/svg" width="128" height="128" viewBox="0 0 128 128">
  <title>PRUNING SHEARS</title>
  <g>
    <path d="M99.675,91.088,89.485,72.632l.489-.27a1.75,1.75,0,0,0,.686-2.378L85.315,60.3a1.75,1.75,0,0,0-2.378-.687l-1.458.806-3.116-5.642a6.14,6.14,0,0,0-3.7-2.951c-.051-.015-.1-.021-.154-.034L87.138,28.931a1.751,1.751,0,0,0-.687-2.378A14.154,14.154,0,0,0,67.219,32.1L64,37.932,60.781,32.1a14.154,14.154,0,0,0-19.232-5.55,1.751,1.751,0,0,0-.687,2.378L53.494,51.807a6.177,6.177,0,0,0-3.857,2.974l-3.116,5.642-1.459-.806a1.749,1.749,0,0,0-2.377.687l-5.345,9.68a1.75,1.75,0,0,0,.686,2.378l.489.27L28.325,91.088a8.18,8.18,0,0,0,7.144,12.127,8.237,8.237,0,0,0,2.277-.324,8.127,8.127,0,0,0,4.89-3.9l10.19-18.455.489.271a1.752,1.752,0,0,0,2.378-.687l5.345-9.679a1.75,1.75,0,0,0-.686-2.378l-1.451-.8,3.793-6.78c.015-.026.022-.053.035-.08a2.677,2.677,0,0,1,3.262,1.212l3.116,5.643-1.459.806a1.75,1.75,0,0,0-.686,2.378l5.345,9.679a1.752,1.752,0,0,0,2.378.687l.489-.271,10.19,18.455a8.127,8.127,0,0,0,4.89,3.9,8.237,8.237,0,0,0,2.277.324,8.176,8.176,0,0,0,7.144-12.127ZM70.283,33.794a10.672,10.672,0,0,1,12.875-4.9L71.084,50.763,66,41.553ZM39.571,97.3a4.673,4.673,0,1,1-8.181-4.518L41.579,74.324l8.183,4.518Zm13.9-20.4-.487-.269,0,0h0L41.744,70.416l-.005,0,0,0-.484-.267L44.9,63.527l1.455.8,0,0h0l9.3,5.134h0l1.468.81Zm-3.89-14.779L52.7,56.473a2.687,2.687,0,0,1,2.613-1.368l3.107,5.626c.019.035.046.065.067.1l-2.651,4.738Zm19.471-2.2a6.186,6.186,0,0,0-8.4-2.423l-.019.011L44.842,28.9a10.672,10.672,0,0,1,12.875,4.9L69.279,54.735a1.75,1.75,0,0,0,2.378.687A2.682,2.682,0,0,1,75.3,56.473l3.116,5.642-6.244,3.447Zm1.816,10.358,1.459-.805h0l9.3-5.137,0,0,0,0,1.455-.8,3.653,6.617-.484.267-.005,0,0,0L75.017,76.622h0l0,0-.487.269ZM97.01,96.334a4.673,4.673,0,0,1-8.581.963L78.238,78.842l8.183-4.518L96.61,92.779A4.647,4.647,0,0,1,97.01,96.334Z"/>
    <circle cx="64" cy="52.625" r="1.391"/>
  </g>
</svg>
