<svg xmlns="http://www.w3.org/2000/svg" width="128" height="128" viewBox="0 0 128 128">
  <title>RAKE</title>
  <path d="M102.7,36.752,91.247,25.3a1.751,1.751,0,0,0-2.475,0,9.843,9.843,0,0,0-2.589,9.3L58.091,62.691l-.136-.136a1.751,1.751,0,0,0-2.475,0L50.4,67.64l-2.919-2.92a12.553,12.553,0,0,0-17.73,0L25.3,69.166a1.75,1.75,0,0,0,2.475,2.475l3.208-3.209,5.29,5.29-3.208,3.209a1.75,1.75,0,1,0,2.475,2.474L38.748,76.2l5.29,5.29L40.83,84.7a1.75,1.75,0,1,0,2.475,2.475l3.208-3.208,5.29,5.29L48.6,92.46a1.75,1.75,0,1,0,2.474,2.475l3.209-3.208,5.29,5.29-3.209,3.208a1.75,1.75,0,0,0,2.475,2.475l4.446-4.446a12.552,12.552,0,0,0,0-17.73L60.36,77.6l5.085-5.084a1.751,1.751,0,0,0,0-2.475l-.136-.136L93.4,41.817a9.785,9.785,0,0,0,9.3-2.59,1.749,1.749,0,0,0,0-2.475ZM61.922,94.422,33.578,66.078A9.054,9.054,0,0,1,45,67.195l3.386,3.386a7.032,7.032,0,0,0,9.032,9.032L60.805,83A9.054,9.054,0,0,1,61.922,94.422ZM57.5,75.513A3.547,3.547,0,0,1,52.487,70.5l4.23-4.229,5.015,5.015Zm5.331-8.078-2.269-2.269L87.739,37.992a9.082,9.082,0,0,0,2.269,2.269ZM91.247,36.752a6.358,6.358,0,0,1-1.063-7.566l8.63,8.63A6.361,6.361,0,0,1,91.247,36.752Z"/>
</svg>
