<svg xmlns="http://www.w3.org/2000/svg" width="128" height="128" viewBox="0 0 128 128">
  <title>SANSEVIERIA</title>
  <path d="M86.052,63.25H80.33a26.776,26.776,0,0,0,3.4-7.494c1.38-6.469-1.686-28.017-1.817-28.931a1.75,1.75,0,0,0-3.213-.684c-.052.084-4.51,7.164-8.269,14.063-2.121-6.991-4.61-13.78-4.79-14.271a1.75,1.75,0,0,0-3.285,0c-.181.491-2.67,7.28-4.791,14.271-3.759-6.9-8.216-13.979-8.27-14.063a1.749,1.749,0,0,0-3.212.684c-.131.914-3.2,22.462-1.817,28.931a26.818,26.818,0,0,0,3.4,7.494H41.948A1.75,1.75,0,0,0,40.2,65V75.907a1.75,1.75,0,0,0,1.75,1.75h1.214v16.68a8.886,8.886,0,0,0,8.876,8.876H75.962a8.886,8.886,0,0,0,8.876-8.876V77.657h1.214a1.749,1.749,0,0,0,1.75-1.75V65A1.749,1.749,0,0,0,86.052,63.25ZM79.093,32.193c.928,7.553,2.042,18.961,1.216,22.833-.27,1.267-1.229,3.73-4.1,8.224h-5c1.486-4.09,2.247-7.254,2.247-9.4a40.348,40.348,0,0,0-1.629-8.786C74.079,40.654,77.014,35.64,79.093,32.193ZM64,31.765c2.483,7.194,5.954,18.124,5.954,22.082,0,1.359-.443,4.08-2.478,9.4H60.524c-2.034-5.32-2.478-8.043-2.478-9.4C58.046,49.889,61.517,38.959,64,31.765ZM47.69,55.025c-.825-3.87.289-15.278,1.217-22.832,2.079,3.448,5.014,8.462,7.268,12.869a40.392,40.392,0,0,0-1.629,8.785c0,2.151.762,5.315,2.248,9.4h-5C48.92,58.754,47.961,56.292,47.69,55.025ZM43.7,66.75H84.3v7.407H43.7Zm37.64,27.587a5.383,5.383,0,0,1-5.376,5.376H52.038a5.383,5.383,0,0,1-5.376-5.376V77.657H81.338Z"/>
</svg>
