<svg xmlns="http://www.w3.org/2000/svg" width="128" height="128" viewBox="0 0 128 128">
  <title>SCISSORS</title>
  <g>
    <path d="M44.349,73.509A8.352,8.352,0,1,0,48.4,78.451,8.285,8.285,0,0,0,44.349,73.509Zm.333,9.647a4.847,4.847,0,1,1,.366-3.691A4.816,4.816,0,0,1,44.682,83.156Z"/>
    <path d="M101.36,73.5a15.621,15.621,0,0,0-25.05-3.429l-2.078-3.88a1.7,1.7,0,0,0-1.319-.905l-1.395-2.606a1.84,1.84,0,0,0,.11-.268,1.748,1.748,0,0,0-.132-1.333l-1.387-2.59L77.9,43.929a9.031,9.031,0,0,0-3.694-12.211,1.75,1.75,0,0,0-2.369.717L64,47.075l-7.839-14.64a1.75,1.75,0,0,0-2.369-.717A9.031,9.031,0,0,0,50.1,43.929l7.793,14.556L56.5,61.075a1.748,1.748,0,0,0-.132,1.333,1.84,1.84,0,0,0,.11.268l-1.395,2.606a1.7,1.7,0,0,0-1.319.905l-2.078,3.88a15.616,15.616,0,1,0,2.487,18.174l9.086-16.97a1.746,1.746,0,0,0,.022-1.6L64,68.335l.715,1.336a1.746,1.746,0,0,0,.022,1.6l9.086,16.97A15.618,15.618,0,1,0,101.36,73.5ZM67.646,67.728,66.561,65.7l2.026-1.084,1.085,2.026Zm-9.318-1.084,1.085-2.026L61.439,65.7l-1.085,2.026ZM73.965,35.88a5.53,5.53,0,0,1,.851,6.4l-6.692,12.5-2.138-3.994Zm-21.2,2.192a5.512,5.512,0,0,1,1.268-2.194l13.55,25.307L64.26,62.964,53.184,42.276A5.479,5.479,0,0,1,52.766,38.072ZM51.091,86.588a12.111,12.111,0,1,1-.57-12.4,1.729,1.729,0,0,0,1.541.786,1.749,1.749,0,0,0,1.464-.922l2.5-4.671,3.324,1.78Zm42.221,4.963a12.131,12.131,0,0,1-16.4-4.963l-8.26-15.426,3.324-1.78,2.5,4.671a1.75,1.75,0,0,0,3,.136A12.118,12.118,0,1,1,93.312,91.551Z"/>
    <path d="M90.009,72.879a8.347,8.347,0,1,0-4.834,15.979,8.29,8.29,0,0,0,6.357-.631h0a8.347,8.347,0,0,0-1.523-15.349Zm2.222,9.393a4.815,4.815,0,0,1-2.351,2.87h0a4.848,4.848,0,1,1,2.351-2.87Z"/>
    <path d="M64.729,57.927a.729.729,0,1,0-.729.729A.73.73,0,0,0,64.729,57.927Z"/>
  </g>
</svg>
