<svg xmlns="http://www.w3.org/2000/svg" width="128" height="128" viewBox="0 0 128 128">
  <title>SEEDS</title>
  <path d="M102.8,53.14a1.738,1.738,0,0,0-.141-.6,11.909,11.909,0,0,0-3.071-5.823c-7.14-7.139-23.445-2.424-34.178,4.039-3.139-7.2-7.1-12.455-11.322-15.213a1.556,1.556,0,0,0-.18-.124,12.215,12.215,0,0,0-6.554-2.079c-12.809,0-22.564,23.925-22.564,35.9A22.554,22.554,0,0,0,58.88,88.625a22.479,22.479,0,0,0,4.259,3.115c.024.014.046.028.07.041a22.553,22.553,0,0,0,26.947-3.728C97.04,81.169,104.952,64.135,102.8,53.14ZM89.142,46.546c3.285,0,6.1.779,7.968,2.643A7.754,7.754,0,0,1,98.5,51.142c-11.058-.655-26.178,6.916-32.26,13a22.625,22.625,0,0,0-6.026,20.882,19.024,19.024,0,0,1,.5-26.4C66.322,53.019,79.673,46.546,89.142,46.546Zm-26.71,6.147a32.293,32.293,0,0,0-4.185,3.451,22.528,22.528,0,0,0-1.809,29.841,18.879,18.879,0,0,1-3.378,1.444A19.114,19.114,0,0,1,39.6,69.235c0-8.4,5.586-24.279,13.431-30.2C56.844,41.939,60.144,47.329,62.432,52.693ZM28.287,69.235c0-10.668,8.824-32.4,19.064-32.4a7.644,7.644,0,0,1,2.372.39C41.445,44.579,36.1,60.631,36.1,69.235A22.627,22.627,0,0,0,46.6,88.262,19.072,19.072,0,0,1,28.287,69.235Zm59.4,16.343a19.1,19.1,0,0,1-22.311,3.415,19.112,19.112,0,0,1,3.348-22.378c5.945-5.944,21.146-13.223,30.875-11.857C100.9,64.219,93.775,79.484,87.682,85.578Z"/>
</svg>
