<svg xmlns="http://www.w3.org/2000/svg" width="128" height="128" viewBox="0 0 128 128">
  <title>SEEDING</title>
  <g>
    <path d="M101.463,71.5H92.714a1.749,1.749,0,0,0-1.75,1.75,4.813,4.813,0,1,1-9.625,0,1.749,1.749,0,0,0-1.75-1.75H70.562a1.75,1.75,0,0,0-1.75,1.75,4.813,4.813,0,1,1-9.625,0,1.749,1.749,0,0,0-1.75-1.75H48.411a1.749,1.749,0,0,0-1.75,1.75,4.813,4.813,0,1,1-9.625,0,1.749,1.749,0,0,0-1.75-1.75H26.537a1.749,1.749,0,0,0-1.75,1.75v28.213a1.749,1.749,0,0,0,1.75,1.75h74.926a1.749,1.749,0,0,0,1.75-1.75V73.25A1.749,1.749,0,0,0,101.463,71.5ZM33.722,75a8.313,8.313,0,0,0,16.254,0h5.9a8.313,8.313,0,0,0,16.254,0h5.9a8.313,8.313,0,0,0,16.254,0h5.435v9.979H28.287V75ZM99.713,99.713H28.287V88.479H99.713Z"/>
    <path d="M36.667,95.846h4.666a1.75,1.75,0,0,0,0-3.5H36.667a1.75,1.75,0,0,0,0,3.5Z"/>
    <path d="M49.167,95.846h4.666a1.75,1.75,0,0,0,0-3.5H49.167a1.75,1.75,0,0,0,0,3.5Z"/>
    <path d="M61.667,95.846h4.666a1.75,1.75,0,0,0,0-3.5H61.667a1.75,1.75,0,0,0,0,3.5Z"/>
    <path d="M74.167,95.846h4.666a1.75,1.75,0,0,0,0-3.5H74.167a1.75,1.75,0,0,0,0,3.5Z"/>
    <path d="M86.667,95.846h4.666a1.75,1.75,0,0,0,0-3.5H86.667a1.75,1.75,0,0,0,0,3.5Z"/>
    <path d="M60.344,66.192c.06,0,.122,0,.183-.009,1.521-.161,6.617-.82,8.367-2.57a5.46,5.46,0,1,0-7.721-7.721c-1.752,1.751-2.409,6.847-2.569,8.367a1.748,1.748,0,0,0,1.74,1.933Zm6.075-7.825a1.959,1.959,0,0,1,0,2.771,11.416,11.416,0,0,1-4.008,1.236,11.468,11.468,0,0,1,1.236-4.008A2.006,2.006,0,0,1,66.419,58.367Z"/>
    <path d="M60.344,36.688a1.616,1.616,0,0,0,.183-.01c1.521-.16,6.617-.82,8.367-2.57a5.46,5.46,0,1,0-7.721-7.721c-1.751,1.751-2.409,6.847-2.569,8.367a1.749,1.749,0,0,0,1.74,1.934Zm3.3-7.827a2.01,2.01,0,0,1,2.772,0,1.96,1.96,0,0,1,0,2.772A11.418,11.418,0,0,1,62.41,32.87,11.434,11.434,0,0,1,63.647,28.861Z"/>
    <path d="M34.171,66.192c.06,0,.122,0,.183-.009,1.521-.161,6.617-.82,8.368-2.571A5.46,5.46,0,1,0,35,55.892c-1.75,1.75-2.409,6.846-2.569,8.367a1.749,1.749,0,0,0,1.74,1.933Zm3.3-7.826a1.96,1.96,0,1,1,2.772,2.772,11.44,11.44,0,0,1-4.009,1.237A11.39,11.39,0,0,1,37.475,58.366Z"/>
    <path d="M85.43,66.192c.06,0,.122,0,.183-.009,1.521-.161,6.616-.82,8.367-2.571a5.459,5.459,0,1,0-7.721-7.72c-1.75,1.75-2.409,6.846-2.57,8.367a1.749,1.749,0,0,0,1.741,1.933Zm3.3-7.826a1.96,1.96,0,1,1,2.773,2.772A11.44,11.44,0,0,1,87.5,62.375,11.418,11.418,0,0,1,88.733,58.366Z"/>
    <path d="M81.328,51.074a1.633,1.633,0,0,0,.184.01,1.751,1.751,0,0,0,1.74-1.934c-.16-1.519-.819-6.614-2.569-8.366h0a5.46,5.46,0,0,0-7.721,7.722C74.712,50.256,79.809,50.914,81.328,51.074Zm-5.892-7.815a1.958,1.958,0,0,1,2.77,0h0a11.41,11.41,0,0,1,1.237,4.009,11.39,11.39,0,0,1-4.008-1.238A1.962,1.962,0,0,1,75.436,43.259Z"/>
    <path d="M54.705,51.074a1.633,1.633,0,0,0,.184.01,1.751,1.751,0,0,0,1.74-1.934c-.16-1.519-.819-6.614-2.569-8.366h0a5.46,5.46,0,0,0-7.722,7.722C48.088,50.256,53.185,50.914,54.705,51.074Zm-5.892-7.815a1.958,1.958,0,0,1,2.77,0h0a11.386,11.386,0,0,1,1.236,4.008,11.412,11.412,0,0,1-4.008-1.238,1.957,1.957,0,0,1,0-2.77Z"/>
  </g>
</svg>
