<svg xmlns="http://www.w3.org/2000/svg" width="128" height="128" viewBox="0 0 128 128">
  <title>SHELVES</title>
  <path d="M101.463,56.819a1.749,1.749,0,0,0,1.75-1.75v-10.6a1.749,1.749,0,0,0-1.75-1.75H63.231a5.2,5.2,0,0,0,.324-1.755V33.623A1.748,1.748,0,0,0,65.013,31.9V26.537a1.75,1.75,0,0,0-1.75-1.75H41.569a1.75,1.75,0,0,0-1.75,1.75V31.9a1.748,1.748,0,0,0,1.458,1.721v7.345a5.2,5.2,0,0,0,.324,1.755H26.538a1.749,1.749,0,0,0-1.75,1.75v10.6a1.749,1.749,0,0,0,1.75,1.75h4.087V80.185H26.538a1.749,1.749,0,0,0-1.75,1.75v10.6a1.749,1.749,0,0,0,1.75,1.75h4.087v7.182a1.75,1.75,0,0,0,1.75,1.75h6.5a1.75,1.75,0,0,0,1.75-1.75V94.281h46.75v7.182a1.749,1.749,0,0,0,1.75,1.75h6.5a1.749,1.749,0,0,0,1.75-1.75V94.281h4.088a1.749,1.749,0,0,0,1.75-1.75v-10.6a1.749,1.749,0,0,0-1.75-1.75H97.375V56.819ZM43.319,28.287H61.513v1.865H43.319Zm1.458,12.681V33.652H60.055v7.316A1.757,1.757,0,0,1,58.3,42.723H46.532A1.757,1.757,0,0,1,44.777,40.968ZM28.288,46.223H99.713v7.1H28.288ZM74.815,80.185a5.2,5.2,0,0,0,.324-1.755V71.086A1.747,1.747,0,0,0,76.6,69.365V64a1.75,1.75,0,0,0-1.75-1.75H53.153A1.75,1.75,0,0,0,51.4,64v5.365a1.748,1.748,0,0,0,1.458,1.721V78.43a5.2,5.2,0,0,0,.324,1.755H40.625V56.819h46.75V80.185Zm-16.7,0a1.757,1.757,0,0,1-1.755-1.755V71.115H71.639V78.43a1.757,1.757,0,0,1-1.755,1.755ZM73.1,67.615H54.9V65.75H73.1Zm-38.972-10.8h3V80.185h-3Zm3,42.894h-3V94.281h3Zm56.75,0h-3V94.281h3Zm5.838-8.932H28.288v-7.1H99.713Zm-5.838-10.6h-3V56.819h3Z"/>
</svg>
