<svg xmlns="http://www.w3.org/2000/svg" width="128" height="128" viewBox="0 0 128 128">
  <title>SHOVEL</title>
  <path d="M102.7,40.435,87.565,25.3a1.75,1.75,0,0,0-2.474,0,12.455,12.455,0,0,0-2.977,12.788L53.284,66.917l-.3-.3a1.8,1.8,0,0,0-2.474,0l-1.582,1.581-5.6-5.6a1.747,1.747,0,0,0-2.423-.05l-6.442,5.934a29.951,29.951,0,0,0-7.977,31.973,1.758,1.758,0,0,0,1.072,1.072,29.949,29.949,0,0,0,31.973-7.977L65.458,87.1a1.749,1.749,0,0,0-.05-2.423l-5.6-5.6,1.581-1.582a1.748,1.748,0,0,0,0-2.474l-.3-.3,28.829-28.83A12.413,12.413,0,0,0,102.7,42.909,1.75,1.75,0,0,0,102.7,40.435ZM57.674,76.257l-4.9,4.9a4.193,4.193,0,0,1-5.93-5.931l4.9-4.9Zm4.072,9.709-4.8,5.207a26.455,26.455,0,0,1-27.436,7.313A26.451,26.451,0,0,1,36.827,71.05l5.207-4.8L46.45,70.67l-2.079,2.079A7.693,7.693,0,1,0,55.25,83.629l2.08-2.079ZM58.608,72.241l-2.849-2.849L83.792,41.359a11.522,11.522,0,0,0,2.849,2.849ZM87.565,40.435a8.967,8.967,0,0,1-1.115-11.3L98.866,41.55A8.967,8.967,0,0,1,87.565,40.435Z"/>
</svg>
