<svg xmlns="http://www.w3.org/2000/svg" width="128" height="128" viewBox="0 0 128 128">
  <title>SPRAY BOTTLE</title>
  <path d="M77.434,48.865H77.25V42.426a1.749,1.749,0,0,0-1.75-1.75H71.962V26.538a1.749,1.749,0,0,0-1.75-1.75H57.788a1.749,1.749,0,0,0-1.75,1.75V40.676H52.5a1.749,1.749,0,0,0-1.75,1.75v6.439h-.184A6.073,6.073,0,0,0,44.5,54.932V97.146a6.073,6.073,0,0,0,6.066,6.066H77.434A6.073,6.073,0,0,0,83.5,97.146V54.932A6.073,6.073,0,0,0,77.434,48.865ZM80,84.122H63.833V67.956H80ZM59.538,28.288h8.924v.376a3.2,3.2,0,0,0,0,5.374v6.638H59.538ZM54.25,44.176h19.5v4.689H71.687v-1.49a1.75,1.75,0,0,0-3.5,0v1.49H65.75v-1.49a1.75,1.75,0,0,0-3.5,0v1.49H59.812v-1.49a1.75,1.75,0,0,0-3.5,0v1.49H54.25ZM77.434,99.712H50.566A2.569,2.569,0,0,1,48,97.146V54.932a2.57,2.57,0,0,1,2.566-2.567H77.434A2.57,2.57,0,0,1,80,54.932v9.524H62.083a1.749,1.749,0,0,0-1.75,1.75V85.872a1.75,1.75,0,0,0,1.75,1.75H80v9.524A2.569,2.569,0,0,1,77.434,99.712Z"/>
</svg>
