<svg xmlns="http://www.w3.org/2000/svg" width="128" height="128" viewBox="0 0 128 128">
  <title>SPRAYER</title>
  <g>
    <path d="M101.462,81.917H99.024a9.754,9.754,0,0,0-9.447-7.5,11.536,11.536,0,0,0-22.27,2.123,7.747,7.747,0,0,0-1.42.089,9.634,9.634,0,0,0-6.146-2.212,11.6,11.6,0,0,0-9.366-7.559V55.041c2.174-.2,5.657-.794,7.4-2.535,2.248-2.248,3.8-8.943,4.087-10.262a1.75,1.75,0,0,0-2.083-2.083c-1.319.288-8.014,1.839-10.261,4.086-2.208,2.208-2.57,7.22-2.63,8.805-2.75-1.876-8.23-3.148-9.411-3.406a1.751,1.751,0,0,0-2.083,2.084c.288,1.319,1.839,8.014,4.087,10.261,1.74,1.741,5.223,2.333,7.4,2.536v2.4a11.561,11.561,0,0,0-9.405,9.611,8.639,8.639,0,0,0-8.27,5.378H26.538a1.749,1.749,0,0,0-1.75,1.75v17.8a1.749,1.749,0,0,0,1.75,1.75h74.924a1.749,1.749,0,0,0,1.75-1.75v-17.8A1.749,1.749,0,0,0,101.462,81.917ZM51.989,46.723h0c.8-.8,3.317-1.73,5.737-2.427-.7,2.419-1.63,4.937-2.428,5.736-.747.746-2.87,1.239-4.779,1.469C50.747,49.593,51.239,47.472,51.989,46.723ZM41.952,59.517c-.8-.8-1.73-3.318-2.428-5.738,2.418.7,4.936,1.628,5.737,2.429h0c.746.746,1.239,2.868,1.468,4.777C44.82,60.755,42.7,60.263,41.952,59.517ZM38.63,80.233A1.751,1.751,0,0,0,40.851,78.5l-.013-.214a8.035,8.035,0,0,1,15.9-1.652A1.748,1.748,0,0,0,58.728,78a6.117,6.117,0,0,1,5.4,1.752,1.747,1.747,0,0,0,1.669.461,4.684,4.684,0,0,1,2.669.017A1.751,1.751,0,0,0,70.688,78.5l-.013-.214a8.035,8.035,0,0,1,15.9-1.652A1.75,1.75,0,0,0,88.564,78a6.169,6.169,0,0,1,6.809,3.914H33.238A5.141,5.141,0,0,1,38.63,80.233ZM99.712,99.712H28.288v-14.3H99.712Z"/>
    <path d="M101.462,40.371H91.034V32.5h10.428a1.75,1.75,0,0,0,0-3.5H91.034V26.538a1.75,1.75,0,0,0-1.75-1.75H79.625a1.75,1.75,0,0,0-1.75,1.75V46.333a1.75,1.75,0,0,0,1.75,1.75h9.659a1.75,1.75,0,0,0,1.75-1.75V43.871h10.428a1.75,1.75,0,0,0,0-3.5ZM87.534,44.583H81.375V28.288h6.159Z"/>
    <path d="M67.614,38.2h4.25a1.75,1.75,0,0,0,0-3.5h-4.25a1.75,1.75,0,0,0,0,3.5Z"/>
    <path d="M70.015,32.01a1.75,1.75,0,1,0,2.475-2.475l-3-3a1.75,1.75,0,1,0-2.475,2.475Z"/>
    <path d="M70.015,40.861l-3,3.005a1.75,1.75,0,1,0,2.475,2.475l3-3.006a1.75,1.75,0,0,0-2.475-2.474Z"/>
  </g>
</svg>
