<svg xmlns="http://www.w3.org/2000/svg" width="128" height="128" viewBox="0 0 128 128">
  <title>SPROUT</title>
  <path d="M101.463,99.713H95.605a14.637,14.637,0,0,0-14.38-12.077q-.357,0-.727.021a17.6,17.6,0,0,0-12.206-11.75V56.22l8.827-8.827a11.084,11.084,0,0,0,14.346-1.13c3.97-3.97,5.6-17.954,5.774-19.535A1.749,1.749,0,0,0,95.31,24.8c-1.581.173-15.566,1.805-19.536,5.774a11.1,11.1,0,0,0-1.13,14.346l-6.352,6.353V26.537a1.75,1.75,0,0,0-3.5,0v36.2l-7.468-7.468a13.066,13.066,0,0,0-1.146-17.187c-4.729-4.728-21.582-6.693-23.488-6.9a1.751,1.751,0,0,0-1.93,1.929c.209,1.907,2.174,18.759,6.9,23.488a13.065,13.065,0,0,0,17.187,1.145l9.943,9.943v7.652c-.341-.02-.681-.042-1.026-.042A17.526,17.526,0,0,0,46.343,91.119a12.517,12.517,0,0,0-1.323-.07,12.835,12.835,0,0,0-12.185,8.664h-6.3a1.75,1.75,0,0,0,0,3.5h74.925a1.75,1.75,0,0,0,0-3.5ZM78.249,33.047C80.3,31,87.925,29.34,93.482,28.556c-.784,5.555-2.44,13.18-4.492,15.232a7.6,7.6,0,0,1-9.354,1.088l7.857-7.857a1.75,1.75,0,1,0-2.474-2.475L77.161,42.4A7.6,7.6,0,0,1,78.249,33.047ZM40.137,54.123c-2.86-2.859-4.819-13.352-5.622-19.187,5.836.8,16.328,2.761,19.188,5.621a9.6,9.6,0,0,1,1.119,12.21L44.958,42.9a1.75,1.75,0,0,0-2.475,2.475l9.864,9.864A9.6,9.6,0,0,1,40.137,54.123ZM45.02,94.549a9.442,9.442,0,0,1,2.543.358,1.749,1.749,0,0,0,2.221-1.733c0-.087-.008-.174-.014-.26l-.007-.115a14,14,0,0,1,27.708-2.878,1.752,1.752,0,0,0,1.989,1.371,10.994,10.994,0,0,1,12.572,8.421H36.621A9.356,9.356,0,0,1,45.02,94.549Z"/>
</svg>
