<svg xmlns="http://www.w3.org/2000/svg" width="128" height="128" viewBox="0 0 128 128">
  <title>SUNFLOWER</title>
  <path d="M92.648,53.436c0-4.074-6.428-6.206-12.778-6.206-.322,0-.636.016-.953.027.231-.217.465-.428.692-.655a23.286,23.286,0,0,0,4.965-6.991c1.586-3.736.482-5.633-.317-6.432s-2.7-1.905-6.433-.318a23.3,23.3,0,0,0-6.99,4.965c-.227.228-.438.461-.655.693.01-.318.026-.632.026-.954,0-6.349-2.132-12.778-6.2-12.778s-6.2,6.429-6.2,12.778c0,.322.016.636.026.954-.217-.232-.428-.465-.655-.693a23.3,23.3,0,0,0-6.99-4.965c-3.736-1.587-5.634-.481-6.433.318s-1.9,2.7-.317,6.432A23.286,23.286,0,0,0,48.391,46.6c.227.227.461.438.692.655-.317-.011-.631-.027-.953-.027-6.35,0-12.778,2.132-12.778,6.206s6.428,6.2,12.778,6.2c.322,0,.636-.016.953-.027-.231.217-.465.428-.692.656-4.491,4.49-7.529,10.542-4.648,13.422a4.075,4.075,0,0,0,2.99,1.125,8.872,8.872,0,0,0,3.443-.807,23.3,23.3,0,0,0,6.99-4.965c.227-.228.438-.461.655-.692-.01.317-.026.631-.026.953,0,5.364,1.527,10.767,4.455,12.321v19.836a1.75,1.75,0,0,0,3.5,0V97.838c2.563-.216,7.213-.9,9.39-3.077,2.783-2.784,4.777-11.628,5-12.628a1.75,1.75,0,0,0-2.083-2.083c-.966.211-9.227,2.08-12.3,4.714V81.627c2.928-1.554,4.455-6.957,4.455-12.321,0-.322-.016-.636-.026-.953.217.231.428.464.655.692a23.3,23.3,0,0,0,6.99,4.965,8.872,8.872,0,0,0,3.443.807,4.075,4.075,0,0,0,2.99-1.125c2.881-2.88-.157-8.932-4.648-13.422-.227-.228-.461-.439-.692-.656.317.011.631.027.953.027C86.22,59.641,92.648,57.509,92.648,53.436ZM67.9,87.521c1.185-1.184,4.919-2.484,8.13-3.364-.879,3.209-2.178,6.943-3.364,8.129-1.092,1.092-4.172,1.764-6.789,2.027C66.122,91.894,66.738,88.683,67.9,87.521ZM89.148,53.436c0,.7-3.19,2.7-9.278,2.7a19.085,19.085,0,0,1-7.554-1.371,8.5,8.5,0,0,0,.116-1.334,8.4,8.4,0,0,0-.117-1.336,19.1,19.1,0,0,1,7.555-1.37C85.958,50.73,89.148,52.74,89.148,53.436Zm-30.08,0A4.932,4.932,0,1,1,64,58.367,4.938,4.938,0,0,1,59.068,53.436ZM73.309,40.3a20.03,20.03,0,0,1,5.883-4.218c1.743-.738,2.5-.522,2.59-.43s.311.848-.429,2.59a20.057,20.057,0,0,1-4.218,5.884A19.1,19.1,0,0,1,70.822,48.5a8.526,8.526,0,0,0-1.886-1.887A19.1,19.1,0,0,1,73.309,40.3ZM64,28.287c.695,0,2.7,3.191,2.7,9.278a19.112,19.112,0,0,1-1.369,7.554,7.752,7.752,0,0,0-2.672,0A19.112,19.112,0,0,1,61.3,37.565C61.3,31.478,63.305,28.287,64,28.287ZM46.647,38.243c-.74-1.742-.523-2.5-.429-2.59s.844-.311,2.59.43A20.03,20.03,0,0,1,54.691,40.3a19.1,19.1,0,0,1,4.373,6.312A8.526,8.526,0,0,0,57.178,48.5a19.1,19.1,0,0,1-6.313-4.373A20.057,20.057,0,0,1,46.647,38.243Zm-7.8,15.193c0-.7,3.19-2.706,9.278-2.706a19.1,19.1,0,0,1,7.555,1.37,8.4,8.4,0,0,0-.117,1.336,8.5,8.5,0,0,0,.116,1.334,19.085,19.085,0,0,1-7.554,1.371C42.042,56.141,38.852,54.131,38.852,53.436ZM54.691,66.57a20.03,20.03,0,0,1-5.883,4.218c-1.744.74-2.5.524-2.59.43-.491-.492.343-4.169,4.647-8.474a19.1,19.1,0,0,1,6.313-4.373,8.483,8.483,0,0,0,1.887,1.886A19.069,19.069,0,0,1,54.691,66.57ZM64,78.583c-.7,0-2.7-3.189-2.7-9.277a19.1,19.1,0,0,1,1.37-7.555,7.74,7.74,0,0,0,2.67,0,19.1,19.1,0,0,1,1.37,7.555C66.705,75.394,64.695,78.583,64,78.583Zm17.782-7.365c-.094.092-.845.31-2.59-.43a20.03,20.03,0,0,1-5.883-4.218,19.069,19.069,0,0,1-4.374-6.313,8.483,8.483,0,0,0,1.887-1.886,19.1,19.1,0,0,1,6.313,4.373C81.439,67.049,82.273,70.726,81.782,71.218Z"/>
</svg>
