<svg xmlns="http://www.w3.org/2000/svg" width="128" height="128" viewBox="0 0 128 128">
  <title>TERRARIUM</title>
  <g>
    <path d="M84.208,47.549a10.484,10.484,0,0,1-4.436-8.471v-.2a1.749,1.749,0,0,0-1.75-1.75H75.264l.418-6.758a5.261,5.261,0,0,0-5.251-5.586H57.569a5.261,5.261,0,0,0-5.25,5.586l.418,6.758H49.978a1.75,1.75,0,0,0-1.75,1.75v.2a10.479,10.479,0,0,1-4.437,8.471,34.2,34.2,0,0,0,.2,55.332,1.752,1.752,0,0,0,1.026.332H82.987a1.752,1.752,0,0,0,1.026-.332,34.2,34.2,0,0,0,.195-55.332Zm-28.4-17.393a1.762,1.762,0,0,1,1.757-1.869H70.431a1.759,1.759,0,0,1,1.756,1.869l-.431,6.975H56.244ZM71.54,40.631,71.431,42.4H56.569l-.109-1.764ZM82.412,99.713H45.588a30.7,30.7,0,0,1,.273-49.342,14.245,14.245,0,0,0,5.775-9.74h1.318l.224,3.622A1.75,1.75,0,0,0,54.924,45.9H73.076a1.75,1.75,0,0,0,1.747-1.642l.224-3.622h1.317a14.245,14.245,0,0,0,5.775,9.74,30.7,30.7,0,0,1,.273,49.342Z"/>
    <path d="M89.193,71.954l-.333-3.08a1.752,1.752,0,0,0-1.506-1.546l-3.072-.415a20.173,20.173,0,0,0-2.745-.209c-4.092,0-7.528,1.709-11.108,5.508a6.571,6.571,0,0,1-2.5.883l-.037-6.372a7.429,7.429,0,0,0,5.663-7.2c0-3.568-5.046-10.035-6.058-11.294a1.749,1.749,0,0,0-2.729,0c-1.012,1.259-6.058,7.726-6.058,11.294a7.431,7.431,0,0,0,5.682,7.208l.036,6.355A5.176,5.176,0,0,1,60.685,70.4c-2.689-5.039-7.614-7.85-14.64-8.356l-2.934-.211a1.729,1.729,0,0,0-1.761,1.123L40.3,65.7a25.353,25.353,0,0,0,8.863,29.556l1.036.75a1.75,1.75,0,0,0,1.026.332H76.771a1.747,1.747,0,0,0,1.025-.332l1.037-.75a25.277,25.277,0,0,0,10.36-23.3ZM62.206,59.52c0-1.275,1.852-4.459,3.923-7.312,2.07,2.854,3.922,6.037,3.922,7.312a3.923,3.923,0,0,1-7.845,0Zm14.576,32.9-.578.418H51.8l-.578-.418a21.855,21.855,0,0,1-7.643-25.476l.583-1.533,1.636.117c5.747.414,9.718,2.606,11.8,6.514,1.618,3.036,4.668,4.707,8.587,4.708H66.2c3.1,0,5.782-1.087,6.74-2.105,2.975-3.155,5.466-4.442,8.6-4.442a16.733,16.733,0,0,1,2.277.178l1.713.231.186,1.716a21.775,21.775,0,0,1-8.931,20.093Z"/>
    <path d="M55.028,81.514A1.389,1.389,0,1,0,53.639,82.9,1.389,1.389,0,0,0,55.028,81.514Z"/>
    <path d="M61.134,80.125a1.389,1.389,0,1,0,1.389,1.389A1.389,1.389,0,0,0,61.134,80.125Z"/>
    <path d="M64,86.927a1.389,1.389,0,1,0,1.389,1.389A1.389,1.389,0,0,0,64,86.927Z"/>
    <path d="M68.915,81.514A1.389,1.389,0,1,0,70.3,82.9,1.389,1.389,0,0,0,68.915,81.514Z"/>
    <circle cx="75.366" cy="86.927" r="1.389"/>
    <path d="M76.048,77.347a1.389,1.389,0,1,0,1.389,1.389A1.389,1.389,0,0,0,76.048,77.347Z"/>
    <path d="M81.815,74.915A1.389,1.389,0,1,0,83.2,76.3,1.389,1.389,0,0,0,81.815,74.915Z"/>
    <path d="M53.054,73.613A1.389,1.389,0,1,0,51.665,75,1.389,1.389,0,0,0,53.054,73.613Z"/>
    <path d="M46.559,77.693a1.389,1.389,0,1,0,1.389,1.389A1.389,1.389,0,0,0,46.559,77.693Z"/>
    <path d="M54.251,87.563a1.389,1.389,0,1,0,1.928.374A1.388,1.388,0,0,0,54.251,87.563Z"/>
  </g>
</svg>
