<svg xmlns="http://www.w3.org/2000/svg" width="128" height="128" viewBox="0 0 128 128">
  <title>WATER SPRAY</title>
  <path d="M90.528,89.947,78.493,60.655V50.215a1.75,1.75,0,0,0-1.75-1.75H74.135V45.089h5.941a1.75,1.75,0,0,0,1.75-1.75A18.573,18.573,0,0,0,63.274,24.787H53.909a1.75,1.75,0,0,0-1.75,1.75v.526H47.875a1.75,1.75,0,0,0-1.75,1.75v6.8a1.75,1.75,0,0,0,1.75,1.75h3a31.355,31.355,0,0,1-13.1,11.259,1.75,1.75,0,0,0,1.437,3.192A34.434,34.434,0,0,0,52.159,41.568V43.34a1.751,1.751,0,0,0,1.75,1.75H59.85v3.375H57.243a1.749,1.749,0,0,0-1.75,1.75v10.44L43.457,89.947a9.612,9.612,0,0,0,8.891,13.266H81.637a9.612,9.612,0,0,0,8.891-13.266Zm-40.9-59.384h2.534v3.3H49.625Zm6.034-2.276h7.615a15.075,15.075,0,0,1,14.951,13.3H55.659Zm7.691,16.8h7.285v3.376H63.35Zm11.643,6.876V59.25H72.086V57a1.75,1.75,0,0,0-3.5,0v2.25H65.4V57a1.75,1.75,0,0,0-3.5,0v2.25H58.993V51.965ZM86.714,97a6.021,6.021,0,0,1-5.077,2.709H52.348a6.113,6.113,0,0,1-5.654-8.436L58.416,62.75H75.57L87.291,91.277A6.022,6.022,0,0,1,86.714,97Z"/>
</svg>
