

<svg xmlns="http://www.w3.org/2000/svg" width="128" height="128" viewBox="0 0 128 128" fill="#FFFFFF" stroke="#FFFFFF">
  <title>WATERING CAN</title>
  <g>
    <path fill="#FFFFFF" stroke="#FFFFFF" d="M103.213,56.951A15.287,15.287,0,0,0,88.618,41.705l-.379-4.378a1.749,1.749,0,0,0-1.743-1.6H85.027V30.99a1.75,1.75,0,0,0-1.75-1.75H55.245a1.75,1.75,0,0,0-1.75,1.75v4.738H52.026a1.749,1.749,0,0,0-1.743,1.6L48.745,55.1l-5.968-4.872-3.8-7.594a1.748,1.748,0,0,0-2.8-.454L25.3,53.06a1.749,1.749,0,0,0,.455,2.8l7.592,3.8L46.914,76.276l-.5,5.818a10.224,10.224,0,0,0,8.465,10.973V97.01a1.75,1.75,0,0,0,1.75,1.75H81.9a1.75,1.75,0,0,0,1.75-1.75V93.067a10.224,10.224,0,0,0,8.465-10.973l-.885-10.227A15.228,15.228,0,0,0,103.213,56.951ZM57,32.74H81.527v2.988H57ZM36.935,46.374,39.249,51,34.12,56.132l-4.629-2.315ZM36.822,58.38,41.5,53.705l6.882,5.618L47.346,71.272ZM58.375,95.26V93.231H80.147V95.26Zm28.5-7.717A6.68,6.68,0,0,1,81.9,89.731H56.625A6.754,6.754,0,0,1,49.9,82.4l.561-6.481,0-.042,3.171-36.645H84.891L88.626,82.4A6.678,6.678,0,0,1,86.874,87.543Zm4.048-19.2-2-23.119a11.772,11.772,0,0,1,2,23.119Z"/>
    <path fill="#FFFFFF" stroke="#FFFFFF" d="M69.262,53.4a1.75,1.75,0,0,0-1.427.736c-.982,1.383-5.883,8.454-5.883,11.908a7.309,7.309,0,0,0,14.618,0c0-3.454-4.9-10.525-5.882-11.908A1.749,1.749,0,0,0,69.262,53.4Zm0,16.452a3.813,3.813,0,0,1-3.81-3.808c0-1.257,1.789-4.644,3.81-7.772,2.019,3.128,3.808,6.515,3.808,7.772A3.813,3.813,0,0,1,69.262,69.848Z"/>
  </g>
</svg>
